<?xml version="1.0" encoding="utf-8"?>
<!-- Generator: Adobe Illustrator 21.0.2, SVG Export Plug-In . SVG Version: 6.00 Build 0)  -->
<svg version="1.1" id="图层_1" xmlns="http://www.w3.org/2000/svg" xmlns:xlink="http://www.w3.org/1999/xlink" x="0px" y="0px"
	 viewBox="0 0 1024 1024" style="enable-background:new 0 0 1024 1024;" xml:space="preserve">
<style type="text/css">
	.st0{fill:#D4D9DE;}
</style>
<path class="st0" d="M116.9,436C174.5,239.6,301,99.2,532,79.1c15.9-1.4,38.2,0,56.2-3.6c15.5-2.9,34.6-14.4,52.6-21.6
	c73.2-29.9,235-82.4,316.4-18c71,56.1,57.7,192.1,14.1,281c35,70.2,60.9,168,45.8,277.4c-205.1,8.3-444.4,1.1-643.7,3.6
	c6.9,105.8,73.5,186.7,172.3,198.2c96.6,11.2,163.6-43.2,207.6-104.3h246.2c-63.8,182.8-226.7,324.9-478.3,306.5
	c-57.3-4.3-102-20.9-151.4-39.6c-82.5,45-264.9,111.5-337.7,18C-23,905.5,12.4,776.3,42.6,692.1c61.3-170.9,177.7-340,291.9-436
	c0.7-2.9,3.6-3.6,3.6-7.2C248.4,294.2,187.5,370.1,116.9,436L116.9,436z M982.2,169C978.9,46.4,820,58.2,736,107.9
	c93.7,37.4,162.2,100.7,218,176.6C966.3,246,983.6,214,982.2,169L982.2,169z M373.8,468.4h390.3C753,217.6,386.1,237.7,373.8,468.4
	L373.8,468.4z M85.2,908c19.5,110.8,175.5,78.8,246.2,28.8C238.7,885,181,797.5,134.2,699C112.9,752.2,72.5,834.6,85.2,908L85.2,908
	z M85.2,908"/>
</svg>
