<?xml version="1.0" encoding="utf-8"?>
<!-- Generator: Adobe Illustrator 21.0.2, SVG Export Plug-In . SVG Version: 6.00 Build 0)  -->
<svg version="1.1" id="图层_1" xmlns="http://www.w3.org/2000/svg" xmlns:xlink="http://www.w3.org/1999/xlink" x="0px" y="0px"
	 viewBox="0 0 1024 1024" style="enable-background:new 0 0 1024 1024;" xml:space="preserve">
<style type="text/css">
	.st0{fill-rule:evenodd;clip-rule:evenodd;fill:#D4D9DE;}
</style>
<g>
	<g>
		<path class="st0" d="M516,0C231,0,0,229.2,0,512c0,282.8,231,512,516,512c285,0,516-229.2,516-512C1032,229.2,801,0,516,0z
			 M516,819.2c-171,0-309.6-137.5-309.6-307.2S345,204.8,516,204.8c171,0,309.6,137.5,309.6,307.2S687,819.2,516,819.2z M516.8,376
			c-76,0-137.6,60.9-137.6,136s61.6,136,137.6,136c76,0,137.6-60.9,137.6-136S592.8,376,516.8,376z"/>
	</g>
</g>
</svg>
