<svg id="图层_1" data-name="图层 1" xmlns="http://www.w3.org/2000/svg" viewBox="0 0 1024 1024"><defs><style>.cls-1{fill:#949ea7;fill-rule:evenodd;}</style></defs><title>画板 6</title><path class="cls-1" d="M89,595.13c-37.26,88.62-43.31,173.17-13.4,189,20.63,10.88,53-13.9,83.27-59.38,12,49.56,41.66,94.43,84,130.43-44.44,16.57-73.48,43.64-73.48,74.33,0,50.45,78.57,91.25,175.54,91.25,87.47,0,159.91-33.16,173.28-76.74,3.59-.05,17.41-.05,20.89,0,13.43,43.53,85.92,76.74,173.32,76.74,97,0,175.55-40.85,175.55-91.25,0-30.64-29-57.76-73.49-74.33,42.33-36.06,72.11-80.87,84-130.43,30.28,45.48,62.55,70.26,83.21,59.38,30-15.8,24-100.41-13.36-189-29.29-69.65-69-120.94-99.41-132.27.44-4.41.66-8.93.66-13.4,0-26.9-7.39-51.79-20-72.05a35,35,0,0,0,.21-4.74,76.68,76.68,0,0,0-7.9-34c-7.67-181-124.37-324.81-313.2-324.81S223,157.59,215.38,338.64a76.32,76.32,0,0,0-7.93,34c0,1.56.11,3.18.17,4.74-12.54,20.26-19.94,45.09-19.94,72.05,0,4.47.17,8.93.55,13.4-30.17,11.33-70,62.67-99.26,132.27Z"/></svg>