<svg id="图层_1" data-name="图层 1" xmlns="http://www.w3.org/2000/svg" viewBox="0 0 1024 1024"><defs><style>.cls-1{fill:#20c3bb;fill-rule:evenodd;}</style></defs><title>画板 1</title><path class="cls-1" d="M638.3,166.81a60.43,60.43,0,0,0,12.78,17.37A25.34,25.34,0,0,0,669,191.34H819.32l2.54-123C821.85,25.84,799.83.6,752,.6c-5.8-1.69-116.38.71-121.84.71h-2V128a80.38,80.38,0,0,0,2.55,17.89A97.32,97.32,0,0,0,638.3,166.81ZM495.13,798.21V782.88a99.44,99.44,0,0,1,1-14.31H243.56q-26.58,0-45.5-18.91t-18.92-45.44q0-26.58,18.92-45t45.5-18.39H541.15q38.86-60.29,102.26-96t140.1-35.76h18.42a72,72,0,0,1,17.39,2V256.74H670q-27.62,0-48.07-12.27a107.5,107.5,0,0,1-33.75-31.67,139.2,139.2,0,0,1-19.43-41.38,157.27,157.27,0,0,1-6.13-42.4V1.31H155.07C63.75,1.31,48.26,28.34,48.26,111l3,718.83c0,106.33-1.18,131.64,97.66,131.64l396.28.16a317.77,317.77,0,0,1-36.81-76.61Q495.14,844.2,495.13,798.21ZM198.06,403.32q18.9-18.87,45.5-18.89h383.5q26.58,0,45,18.89t18.42,45.48q0,26.56-18.42,44.94t-45,18.39H243.56q-26.58,0-45.5-18.39T179.14,448.8Q179.14,422.22,198.06,403.32Zm797.14,308A223.28,223.28,0,0,0,875.56,591.83q-40.91-17.37-87.94-17.37a220.09,220.09,0,0,0-86.93,17.37,224.2,224.2,0,0,0-71.59,48,231.2,231.2,0,0,0-48.57,71.53q-17.89,40.86-17.9,87.86t17.9,87.84a231,231,0,0,0,48.57,71.53,224.25,224.25,0,0,0,71.59,48A220.09,220.09,0,0,0,787.61,1024q47,0,87.94-17.37A223.4,223.4,0,0,0,995.2,887.07q17.38-40.82,17.37-87.84T995.2,711.37ZM818.9,787.78v136a29.91,29.91,0,0,1-59.81,0v-136H664.76L788.12,666.33,911.46,787.78Z"/></svg>