<svg id="图层_1" data-name="图层 1" xmlns="http://www.w3.org/2000/svg" viewBox="0 0 1024 1024"><defs><style>.cls-1{fill:#949ea7;fill-rule:evenodd;}</style></defs><title>画板 3</title><path class="cls-1" d="M40.11,108.61C3.5,154.13-77.62,370.9,270,725.8c366.3,374.05,602.54,294,643.19,251.86l-244.85-244c-34.24,34-78.27,3.78-162.85-64.92-55.9-45.42-120.38-106.56-176.22-175.54-39.17-48.29-73.82-99-38.06-134.75L40.11,108.61Zm961.6,781.7c15.85-15.84,14.27-40-.15-54.46v-.19s-191-190-191.16-190.1a38.52,38.52,0,0,0-54.35.09l-69.28,69.14L932.29,959.46s69.34-68.92,69.24-69l.19-.13ZM379.49,270.49a38.15,38.15,0,0,0,0-54.31V216S182.92,20.41,182.8,20.38a38.43,38.43,0,0,0-54.32,0L59.24,89.58,310.18,339.65s69.31-68.85,69.31-69v-.19Z"/></svg>