<svg id="图层_1" data-name="图层 1" xmlns="http://www.w3.org/2000/svg" viewBox="0 0 1024 1024"><defs><style>.cls-1{fill:#949ea7;fill-rule:evenodd;}</style></defs><title>画板 7</title><path class="cls-1" d="M527.29,560.87a40.4,40.4,0,0,1,12.5,18.6L928.13,317.05c14-11.26,34.47-11.53,53.13-2.58a190.5,190.5,0,0,0-148.15-70.53H190.88a190,190,0,0,0-90.88,23,40.63,40.63,0,0,1,20.28,8.87ZM1019.82,395a38,38,0,0,1-11.21,14.9l-401,271c-20.68,16.63-55.46,9.32-77.7-16.31a75.78,75.78,0,0,1-11.2-17c-22.53,21.9-54,27.11-73.37,11l-407-285.07c-9-7.49-13.92-18.38-14.82-30.5A190,190,0,0,0,0,434.83V753C0,858.39,85.46,943.85,190.88,943.85H833.12C938.54,943.85,1024,858.39,1024,753V434.83A191.61,191.61,0,0,0,1019.82,395Z"/></svg>