<?xml version="1.0" encoding="utf-8"?>
<!-- Generator: Adobe Illustrator 22.0.1, SVG Export Plug-In . SVG Version: 6.00 Build 0)  -->
<!DOCTYPE svg PUBLIC "-//W3C//DTD SVG 1.1//EN" "http://www.w3.org/Graphics/SVG/1.1/DTD/svg11.dtd">
<svg version="1.1" id="图层_1" xmlns="http://www.w3.org/2000/svg" xmlns:xlink="http://www.w3.org/1999/xlink" x="0px" y="0px"
	 viewBox="0 0 1024 1024" style="enable-background:new 0 0 1024 1024;" xml:space="preserve">
<style type="text/css">
	.st0{fill:#262727;}
</style>
<g>
	<g>
		<path class="st0" d="M796.422,909.608H231.399c-78.769,0-142.844-64.075-142.844-142.844V401.714
			c0-78.769,64.075-142.844,142.844-142.844h565.022c78.769,0,142.844,64.075,142.844,142.844v365.051
			C939.265,845.533,875.19,909.608,796.422,909.608z M231.399,306.485c-52.506,0-95.229,42.723-95.229,95.229v365.051
			c0,52.506,42.723,95.229,95.229,95.229h565.022c52.506,0,95.229-42.723,95.229-95.229V401.714
			c0-52.506-42.723-95.229-95.229-95.229H231.399z"/>
	</g>
	<g>
		<path class="st0" d="M744.836,306.169H282.975c-13.15,0-23.807-10.657-23.807-23.807V228.2c0-81.717,66.484-148.2,148.2-148.2
			h213.075c81.717,0,148.2,66.484,148.2,148.2v54.162C768.643,295.511,757.986,306.169,744.836,306.169z M306.783,258.554h414.246
			V228.2c0-55.463-45.122-100.586-100.586-100.586H407.368c-55.463,0-100.586,45.122-100.586,100.586V258.554z"/>
	</g>
	<g>
		<path class="st0" d="M913.273,529.483H119.301c-13.15,0-23.807-10.657-23.807-23.807c0-13.15,10.657-23.807,23.807-23.807h793.972
			c13.15,0,23.807,10.657,23.807,23.807C937.08,518.825,926.422,529.483,913.273,529.483z"/>
	</g>
	<g>
		<path class="st0" d="M647.226,645.841H380.585c-14.163,0-25.649-11.485-25.649-25.649V508.298
			c0-14.163,11.485-25.649,25.649-25.649h266.641c14.164,0,25.649,11.485,25.649,25.649v111.894
			C672.875,634.356,661.39,645.841,647.226,645.841z M406.234,594.544h215.344v-60.597H406.234V594.544z"/>
	</g>
</g>
</svg>
