<?xml version="1.0" encoding="utf-8"?>
<!-- Generator: Adobe Illustrator 22.0.1, SVG Export Plug-In . SVG Version: 6.00 Build 0)  -->
<!DOCTYPE svg PUBLIC "-//W3C//DTD SVG 1.1//EN" "http://www.w3.org/Graphics/SVG/1.1/DTD/svg11.dtd">
<svg version="1.1" id="图层_1" xmlns="http://www.w3.org/2000/svg" xmlns:xlink="http://www.w3.org/1999/xlink" x="0px" y="0px"
	 viewBox="0 0 1024 1024" style="enable-background:new 0 0 1024 1024;" xml:space="preserve">
<style type="text/css">
	.st0{fill:#262727;}
	.st1{display:none;}
	.st2{display:inline;}
</style>
<g>
	<g>
		<path class="st0" d="M742.826,308.466H283.438c-13.078,0-23.68-10.602-23.68-23.68v-53.872
			c0-81.28,66.126-147.407,147.407-147.407h211.934c81.28,0,147.407,66.126,147.407,147.407v53.872
			C766.506,297.864,755.904,308.466,742.826,308.466z M307.118,261.106h412.029v-30.192c0-55.166-44.882-100.047-100.048-100.047
			H407.165c-55.167,0-100.047,44.881-100.047,100.047V261.106z"/>
	</g>
	<g>
		<g>
			<path class="st0" d="M671.254,620.807c0,14.088-11.424,25.511-25.511,25.511H380.528c-14.088,0-25.511-11.424-25.511-25.511
				v-89.382H90.053v235.17c0,78.347,63.732,142.079,142.079,142.079H794.13c78.347,0,142.079-63.732,142.079-142.079v-235.17
				H671.254V620.807z M794.13,261.419H232.132c-78.347,0-142.079,63.732-142.079,142.079v78.883h846.156v-78.883
				C936.208,325.151,872.477,261.419,794.13,261.419z"/>
		</g>
	</g>
</g>
<g class="st1">
	<g class="st2">
		<path class="st0" d="M796.422,909.608H231.399c-78.769,0-142.844-64.075-142.844-142.844v-365.05
			c0-78.769,64.075-142.844,142.844-142.844h565.022c78.769,0,142.844,64.075,142.844,142.844v365.051
			C939.265,845.533,875.19,909.608,796.422,909.608z M231.399,306.485c-52.506,0-95.229,42.723-95.229,95.229v365.051
			c0,52.506,42.723,95.229,95.229,95.229h565.022c52.506,0,95.229-42.723,95.229-95.229V401.714
			c0-52.506-42.723-95.229-95.229-95.229H231.399z"/>
	</g>
	<g class="st2">
		<path class="st0" d="M744.836,306.169H282.975c-13.15,0-23.807-10.657-23.807-23.807V228.2c0-81.717,66.484-148.2,148.2-148.2
			h213.075c81.717,0,148.2,66.484,148.2,148.2v54.162C768.643,295.511,757.986,306.169,744.836,306.169z M306.783,258.554h414.246
			V228.2c0-55.463-45.122-100.586-100.586-100.586H407.368c-55.463,0-100.586,45.122-100.586,100.586L306.783,258.554
			L306.783,258.554z"/>
	</g>
	<g class="st2">
		<path class="st0" d="M913.273,529.483H119.301c-13.15,0-23.807-10.657-23.807-23.807c0-13.15,10.657-23.807,23.807-23.807h793.972
			c13.15,0,23.807,10.657,23.807,23.807C937.08,518.825,926.422,529.483,913.273,529.483z"/>
	</g>
	<g class="st2">
		<path class="st0" d="M647.226,645.841H380.585c-14.163,0-25.649-11.485-25.649-25.649V508.298
			c0-14.163,11.485-25.649,25.649-25.649h266.641c14.164,0,25.649,11.485,25.649,25.649v111.894
			C672.875,634.356,661.39,645.841,647.226,645.841z M406.234,594.544h215.344v-60.597H406.234V594.544z"/>
	</g>
</g>
</svg>
