<?xml version="1.0" encoding="utf-8"?>
<!-- Generator: Adobe Illustrator 22.0.1, SVG Export Plug-In . SVG Version: 6.00 Build 0)  -->
<!DOCTYPE svg PUBLIC "-//W3C//DTD SVG 1.1//EN" "http://www.w3.org/Graphics/SVG/1.1/DTD/svg11.dtd">
<svg version="1.1" id="图层_1" xmlns="http://www.w3.org/2000/svg" xmlns:xlink="http://www.w3.org/1999/xlink" x="0px" y="0px"
	 viewBox="0 0 1024 1024" style="enable-background:new 0 0 1024 1024;" xml:space="preserve">
<style type="text/css">
	.st0{display:none;}
	
		.st1{display:inline;fill:none;stroke:#262727;stroke-width:47.3596;stroke-linecap:round;stroke-linejoin:round;stroke-miterlimit:10;}
	.st2{display:inline;}
	.st3{fill:#262727;}
</style>
<g class="st0">
	<path class="st1" d="M742.826,284.786H283.438v-53.872c0-68.333,55.394-123.727,123.727-123.727h211.934
		c68.333,0,123.727,55.394,123.727,123.727V284.786z"/>
	<g class="st2">
		<g>
			<path class="st3" d="M671.254,620.807c0,14.088-11.424,25.511-25.511,25.511H380.528c-14.088,0-25.511-11.424-25.511-25.511
				v-89.382H90.053v235.17c0,78.347,63.732,142.079,142.079,142.079H794.13c78.347,0,142.079-63.732,142.079-142.079v-235.17
				H671.254V620.807z M794.13,261.419H232.132c-78.347,0-142.079,63.732-142.079,142.079v78.883h846.156v-78.883
				C936.208,325.151,872.477,261.419,794.13,261.419z"/>
		</g>
	</g>
</g>
<g class="st0">
	<g class="st2">
		<path class="st3" d="M796.422,909.608H231.399c-78.769,0-142.844-64.075-142.844-142.844V401.714
			c0-78.769,64.075-142.844,142.844-142.844h565.022c78.769,0,142.844,64.075,142.844,142.844v365.051
			C939.265,845.533,875.19,909.608,796.422,909.608z M231.399,306.485c-52.506,0-95.229,42.723-95.229,95.229v365.051
			c0,52.506,42.723,95.229,95.229,95.229h565.022c52.506,0,95.229-42.723,95.229-95.229V401.714
			c0-52.506-42.723-95.229-95.229-95.229H231.399z"/>
	</g>
	<g class="st2">
		<path class="st3" d="M744.836,306.169H282.975c-13.15,0-23.807-10.657-23.807-23.807V228.2c0-81.717,66.484-148.2,148.2-148.2
			h213.075c81.717,0,148.2,66.484,148.2,148.2v54.162C768.643,295.511,757.986,306.169,744.836,306.169z M306.783,258.554h414.246
			V228.2c0-55.463-45.122-100.586-100.586-100.586H407.368c-55.463,0-100.586,45.122-100.586,100.586V258.554z"/>
	</g>
	<g class="st2">
		<path class="st3" d="M913.273,529.483H119.301c-13.15,0-23.807-10.657-23.807-23.807c0-13.15,10.657-23.807,23.807-23.807h793.972
			c13.15,0,23.807,10.657,23.807,23.807C937.08,518.825,926.422,529.483,913.273,529.483z"/>
	</g>
	<g class="st2">
		<path class="st3" d="M647.226,645.841H380.585c-14.163,0-25.649-11.485-25.649-25.649V508.298
			c0-14.163,11.485-25.649,25.649-25.649h266.641c14.164,0,25.649,11.485,25.649,25.649v111.894
			C672.875,634.356,661.39,645.841,647.226,645.841z M406.234,594.544h215.344v-60.597H406.234V594.544z"/>
	</g>
</g>
<g>
	<g>
		<path class="st3" d="M236.739,891c-65.41,0.009-119.678-25.615-123.28-27.35c-9.736-4.699-15.673-14.81-15.044-25.596
			c0.638-10.795,7.719-20.137,17.942-23.654c47.449-16.357,49.222-94.129,48.65-117.455
			c-31.899-47.365-46.192-107.654-46.192-193.933c0-212.579,177.735-385.521,396.204-385.521
			c218.46,0,396.195,172.942,396.195,385.521S733.479,888.543,515.019,888.543c-71.807,0-127.2-9.154-168.562-27.922
			C310.816,883.487,272.136,891,236.739,891z M182.227,830.711c39.402,9.342,97.056,13.816,142.92-20.184
			c1.069-1.06,2.232-2.026,3.489-2.898c8.413-5.787,19.377-6.528,28.269-1.482c33.971,19.265,87.161,29.029,158.114,29.029
			c189.037,0,342.827-149.007,342.827-332.163s-153.79-332.154-342.827-332.154c-189.047,0-342.837,148.997-342.837,332.154
			c0,78.4,12.54,130.596,40.677,169.247c0.863,1.191,1.632,2.448,2.289,3.77c1.501,2.992,2.439,6.275,2.729,9.604
			C218.3,690.295,225.343,777.315,182.227,830.711z"/>
	</g>
	<g>
		<circle class="st3" cx="335.114" cy="496.331" r="76.034"/>
	</g>
	<g>
		<circle class="st3" cx="524.798" cy="496.331" r="76.034"/>
	</g>
	<g>
		<circle class="st3" cx="714.483" cy="496.331" r="76.034"/>
	</g>
</g>
</svg>
