<?xml version="1.0" encoding="utf-8"?>
<!-- Generator: Adobe Illustrator 21.0.2, SVG Export Plug-In . SVG Version: 6.00 Build 0)  -->
<svg version="1.1" id="图层_1" xmlns="http://www.w3.org/2000/svg" xmlns:xlink="http://www.w3.org/1999/xlink" x="0px" y="0px"
	 viewBox="0 0 1024 1024" style="enable-background:new 0 0 1024 1024;" xml:space="preserve">
<style type="text/css">
	.st0{fill-rule:evenodd;clip-rule:evenodd;fill:#D4D9DE;}
</style>
<g>
	<g>
		<path class="st0" d="M716.9,30.3H307.9C138.8,30.3,1.7,167.4,1.7,336.4v367.3c0,169.1,137,306.1,306.1,306.1h409.1
			c169.1,0,306.1-137,306.1-306.1V336.4C1023.1,167.4,886,30.3,716.9,30.3z M544.7,775.5l-58,57C419.8,898.3,322,906,268.2,849.9
			l-40.8-42.6c-53.8-56.2-43.2-155.1,23.7-220.8l132.8-130.5c128.3-83.1,224.4,18.5,224.4,18.5l-77.9,76l-9.3-9.6
			c-21.5-22.6-67.6-12.6-103,22.1l-80.8,79.4c-35.3,34.7-46.5,81.1-25,103.6l16.3,17.1c21.6,22.5,67.6,12.6,103-22.2l47.6-46.8
			C550.1,690.9,549.6,746.7,544.7,775.5z M776.9,511.8L647.6,645.9c-126,86.7-224.7-12.4-224.7-12.4l75.8-78.1l9.4,9.4
			c22.1,21.9,68,10.7,102.4-24.9l78.6-81.6c34.4-35.7,44.4-82.4,22.2-104.3l-16.8-16.6c-22.1-21.9-68-10.7-102.4,25l-46.4,48.1
			c-70.5,5.2-71.4-50.6-67.3-79.6l56.5-58.6c65.1-67.5,162.6-77.9,217.9-23.2l41.9,41.5C850,345.2,842,444.4,776.9,511.8z"/>
	</g>
</g>
</svg>
