<?xml version="1.0" encoding="utf-8"?>
<!-- Generator: Adobe Illustrator 21.0.2, SVG Export Plug-In . SVG Version: 6.00 Build 0)  -->
<svg version="1.1" id="图层_1" xmlns="http://www.w3.org/2000/svg" xmlns:xlink="http://www.w3.org/1999/xlink" x="0px" y="0px"
	 viewBox="0 0 1024 1024" style="enable-background:new 0 0 1024 1024;" xml:space="preserve">
<style type="text/css">
	.st0{fill-rule:evenodd;clip-rule:evenodd;fill:#D4D9DE;}
</style>
<g>
	<g>
		<path class="st0" d="M630.7,192.6H426.1v409.1H263.2l265.2,265.2l265.2-265.2H630.7V192.6z M511.4,5.1C228.9,5.1,0,234.1,0,516.5
			c0,282.4,228.9,511.4,511.4,511.4c282.4,0,511.4-228.9,511.4-511.4C1022.8,234.1,793.8,5.1,511.4,5.1z M511.4,993.8
			c-263.6,0-477.3-213.7-477.3-477.3c0-263.6,213.7-477.3,477.3-477.3s477.3,213.7,477.3,477.3C988.7,780.1,775,993.8,511.4,993.8z"
			/>
	</g>
</g>
</svg>
