<?xml version="1.0" encoding="utf-8"?>
<!-- Generator: Adobe Illustrator 21.0.2, SVG Export Plug-In . SVG Version: 6.00 Build 0)  -->
<svg version="1.1" id="图层_1" xmlns="http://www.w3.org/2000/svg" xmlns:xlink="http://www.w3.org/1999/xlink" x="0px" y="0px"
	 viewBox="0 0 1024 1024" style="enable-background:new 0 0 1024 1024;" xml:space="preserve">
<style type="text/css">
	.st0{fill-rule:evenodd;clip-rule:evenodd;fill:#D4D9DE;}
</style>
<g>
	<g>
		<path class="st0" d="M852.7,9H175.3C81.7,9,5.7,85,5.7,178.6v675.8c0,93.7,75.9,169.6,169.6,169.6h677.3
			c93.7,0,169.6-75.9,169.6-169.6V178.6C1022.3,85,946.3,9,852.7,9z M958.7,790.8c0,93.7-75.9,169.6-169.6,169.6H238.9
			c-93.7,0-169.6-75.9-169.6-169.6V242.2c0-93.7,75.9-169.6,169.6-169.6h550.3c93.7,0,169.6,75.9,169.6,169.6V790.8z"/>
	</g>
</g>
<path class="st0" d="M372,469.1l86.1,171.2c0,0,140-347.9,360.8-463.8c-5.4,82.8-26.9,154.6,10.8,243
	c-96.9,22.1-296.1,270.5-360.8,392c-91.5-116-199.2-204.3-274.6-231.9L372,469.1z"/>
</svg>
