<?xml version="1.0" encoding="utf-8"?>
<!-- Generator: Adobe Illustrator 21.0.2, SVG Export Plug-In . SVG Version: 6.00 Build 0)  -->
<svg version="1.1" id="图层_1" xmlns="http://www.w3.org/2000/svg" xmlns:xlink="http://www.w3.org/1999/xlink" x="0px" y="0px"
	 viewBox="0 0 1024 1024" style="enable-background:new 0 0 1024 1024;" xml:space="preserve">
<style type="text/css">
	.st0{fill-rule:evenodd;clip-rule:evenodd;fill:#28373E;}
</style>
<path class="st0" d="M726.8,400h-67v424h67V400L726.8,400z M909.6,213.3H739C739,102.8,636.7,0,525.6,0
	C414.5,0,312.3,102.8,312.3,213.3H141.6c-37,0-85.3,5.8-85.3,42.7c0,36.8,48.3,42.6,85.3,42.6v512c0,110.5,59.6,213.3,170.7,213.3
	H739c111,0,170.7-102.9,170.7-213.3v-512c37.1,0,85.3-5.8,85.3-42.6C995,219.1,946.7,213.3,909.6,213.3L909.6,213.3z M525.6,85.3
	c71.2,0,128.7,57.2,128.7,128H396.9C396.9,142.5,454.6,85.3,525.6,85.3L525.6,85.3z M824.3,853.3c0,36.9-48.3,85.3-85.3,85.3H312.3
	c-37,0-85.3-48.5-85.3-85.3V298.7h597.3V853.3L824.3,853.3z M592.7,400H458.6v424h134.1V400L592.7,400z M391.5,400h-67v424h67V400
	L391.5,400z"/>
</svg>
