<?xml version="1.0" encoding="utf-8"?>
<!-- Generator: Adobe Illustrator 21.0.2, SVG Export Plug-In . SVG Version: 6.00 Build 0)  -->
<svg version="1.1" id="图层_1" xmlns="http://www.w3.org/2000/svg" xmlns:xlink="http://www.w3.org/1999/xlink" x="0px" y="0px"
	 viewBox="0 0 1024 1024" style="enable-background:new 0 0 1024 1024;" xml:space="preserve">
<style type="text/css">
	.st0{fill-rule:evenodd;clip-rule:evenodd;fill:#20C3BB;}
</style>
<path class="st0" d="M985.6,119H38.4C17.1,119,0,136.2,0,153.4v700.7c0,21.5,17.1,38.7,38.4,38.7H192v-64.5h128v64.5h128v-64.5h128
	v64.5h128v-64.5h128v64.5h153.6c21.3,0,38.4-17.2,38.4-38.7V153.4C1024,136.2,1006.9,119,985.6,119L985.6,119z M128,699.3
	c0-158.8,81.1-202,179.2-202c-55.5,0-102.4-47.3-102.4-103.2c0-55.9,47-103.2,102.4-103.2c55.4,0,102.4,47.3,102.4,103.2
	c0,55.9-47,103.2-102.4,103.2c98.1,0,204.8,29.5,204.8,202H128L128,699.3z M896,634.8H576v-64.5h320V634.8L896,634.8z M896,505.9
	H576v-64.5h320V505.9L896,505.9z M896,376.9H576v-64.5h320V376.9L896,376.9z"/>
</svg>
