<?xml version="1.0" encoding="utf-8"?>
<!-- Generator: Adobe Illustrator 21.0.2, SVG Export Plug-In . SVG Version: 6.00 Build 0)  -->
<svg version="1.1" id="图层_1" xmlns="http://www.w3.org/2000/svg" xmlns:xlink="http://www.w3.org/1999/xlink" x="0px" y="0px"
	 viewBox="0 0 1024 1024" style="enable-background:new 0 0 1024 1024;" xml:space="preserve">
<path d="M537.7,768c70.7,0,128,57.3,128,128s-57.3,128-128,128s-128-57.3-128-128S467,768,537.7,768 M537.7,384
	c70.7,0,128,57.3,128,128s-57.3,128-128,128s-128-57.3-128-128S467,384,537.7,384 M537.7,0c70.7,0,128,57.3,128,128
	s-57.3,128-128,128s-128-57.3-128-128S467,0,537.7,0z"/>
</svg>
