<?xml version="1.0" encoding="utf-8"?>
<!-- Generator: Adobe Illustrator 21.0.2, SVG Export Plug-In . SVG Version: 6.00 Build 0)  -->
<svg version="1.1" id="图层_1" xmlns="http://www.w3.org/2000/svg" xmlns:xlink="http://www.w3.org/1999/xlink" x="0px" y="0px"
	 viewBox="0 0 1024 1024" style="enable-background:new 0 0 1024 1024;" xml:space="preserve">
<style type="text/css">
	.st0{fill-rule:evenodd;clip-rule:evenodd;fill:#CACACA;}
</style>
<g>
	<g>
		<path class="st0" d="M597.3,0H426.7C191,0,0,191,0,426.7v170.7C0,833,191,1024,426.7,1024h170.7C833,1024,1024,833,1024,597.3
			V426.7C1024,191,833,0,597.3,0z M930.7,580.2c0,193.6-156.9,350.5-350.5,350.5H443.8c-193.5,0-350.5-156.9-350.5-350.5V443.8
			c0-193.5,156.9-350.5,350.5-350.5h136.4c193.6,0,350.5,156.9,350.5,350.5V580.2z M558.5,279.2h-93.1V464H277.3v96h188.1v184.7
			h93.1V560h188.1v-96H558.5V279.2z"/>
	</g>
</g>
</svg>
