<?xml version="1.0" encoding="utf-8"?>
<!-- Generator: Adobe Illustrator 21.0.2, SVG Export Plug-In . SVG Version: 6.00 Build 0)  -->
<svg version="1.1" id="图层_1" xmlns="http://www.w3.org/2000/svg" xmlns:xlink="http://www.w3.org/1999/xlink" x="0px" y="0px"
	 viewBox="0 0 1024 1024" style="enable-background:new 0 0 1024 1024;" xml:space="preserve">
<style type="text/css">
	.st0{fill-rule:evenodd;clip-rule:evenodd;fill:#CACACA;}
</style>
<g>
	<g>
		<path class="st0" d="M854.2,5.4H169.8C76.1,5.4,0.1,81.4,0.1,175.2v679.1c0,93.7,76,169.7,169.8,169.7h684.4
			c93.8,0,169.8-76,169.8-169.7V175.2C1024,81.4,948,5.4,854.2,5.4z M939.1,854.3c0,46.9-38,84.9-84.9,84.9H169.8
			c-46.9,0-84.9-38-84.9-84.9V175.2c0-46.9,38-84.9,84.9-84.9h684.4c46.9,0,84.9,38,84.9,84.9V854.3z"/>
	</g>
</g>
</svg>
