<svg id="图层_1" data-name="图层 1" xmlns="http://www.w3.org/2000/svg" viewBox="0 0 1024 1024"><defs><style>.cls-1{fill:#304b5b;fill-rule:evenodd;}</style></defs><title>画板 29 副本</title><path class="cls-1" d="M403.8,369.63V246.42c0-93.8,69.12-164.28,167.25-164.28s125.43,70.48,125.43,164.28h0c0,13.39,27.79,41.05,41.81,41.05s40.19-23.51,40.19-36.91V218.4C778.48,57,662.35,0,550,0,423.86,0,321.59,97.8,321.59,218.4V426.8c-132.05,106-165.41,278.54-79.11,425.31s267.33,211.48,429.35,153.43S930.1,783.45,900.1,616.5,722.48,327.88,550,327.92C550,327.92,503.34,314.18,403.8,369.63ZM550,944.73c-150.18,0-271.91-119.44-271.91-266.83s121.84-283,272-283S822,530.55,822,677.9,697.47,944.56,529.24,944.56Zm40.08-327.19V725.89c0,13.59-17.81,24.61-39.79,24.61s-39.79-11-39.79-24.61V617.54c0-13.59,17.82-24.61,39.79-24.61s39.79,11,39.79,24.61Z"/></svg>