<?xml version="1.0" encoding="utf-8"?>
<!-- Generator: Adobe Illustrator 21.0.2, SVG Export Plug-In . SVG Version: 6.00 Build 0)  -->
<svg version="1.1" id="图层_1" xmlns="http://www.w3.org/2000/svg" xmlns:xlink="http://www.w3.org/1999/xlink" x="0px" y="0px"
	 viewBox="0 0 1024 1024" style="enable-background:new 0 0 1024 1024;" xml:space="preserve">
<style type="text/css">
	.st0{fill:#060001;}
</style>
<g>
	<g>
		<path class="st0" d="M662.5,843.2H361.4l-3,129.5l-177.7-9v60.2h662.5v-60.2H662.5V843.2z M921.5,0H102.4C57.1,0,0,69.4,0,120.5
			l0,545.1C0,713.4,75.1,783,120.5,783h783c63.6,0,120.4-41,120.4-117.5V102.4C1026.9,51.4,966.8,0,921.5,0z M903.4,602.3
			c0,32.2-24.6,60.2-60.2,60.2H180.7c-44.1,0-60.2-28-60.2-60.2V180.7c0-32.2,16.1-60.2,60.2-60.2h662.5c37.3,0,60.2,19.5,60.2,60.2
			V602.3z M621.8,464.4c22.8-25.9,37.1-57.6,37.1-95h-57.1c0,49-37.1,86.4-85.6,86.4c-48.5,0-85.6-37.4-85.6-86.4
			c0-49,37.1-86.4,85.6-86.4v-57.6c-37.1,0-71.4,14.4-97,40.4L307.9,153.3H153.8v57.6h131.3l102.7,103.7
			c-8.6,17.3-11.4,37.5-11.4,54.8c0,80.7,62.8,144,142.7,144c22.8,0,42.8-5.7,59.9-14.4l114.2,115.2h177v-57.6H718.9L621.8,464.4z
			 M153.8,614.2H325v-57.6H153.8V614.2z M296.5,354.9H153.8v57.6h142.7V354.9z M596.1,326.1c31.4,0,57.1-25.9,57.1-57.6
			c0-5.8,0-8.6-2.8-14.4l42.8-43.2h174.1v-57.6H670.3l-59.9,60.5c-5.7-2.9-11.4-2.9-14.3-2.9c-31.4,0-57.1,25.9-57.1,57.6
			C539.1,300.2,564.7,326.1,596.1,326.1z"/>
	</g>
</g>
</svg>
