<?xml version="1.0" encoding="utf-8"?>
<!-- Generator: Adobe Illustrator 21.0.2, SVG Export Plug-In . SVG Version: 6.00 Build 0)  -->
<svg version="1.1" id="图层_1" xmlns="http://www.w3.org/2000/svg" xmlns:xlink="http://www.w3.org/1999/xlink" x="0px" y="0px"
	 viewBox="0 0 1024 1024" style="enable-background:new 0 0 1024 1024;" xml:space="preserve">
<style type="text/css">
	.st0{fill-rule:evenodd;clip-rule:evenodd;fill:#040000;}
</style>
<g>
	<g>
		<path class="st0" d="M139.6,814.5h186.2V628.3H139.6V814.5z M139.6,535.3h186.2V349.1H139.6V535.3z M418.9,814.5h186.2V628.3
			H418.9V814.5z M698.2,535.3h186.2V349.1H698.2V535.3z M924.3,23.3H88.9c-8.1,0-15.7,1.9-22.4,5.4C27.8,41.6,0,76.6,0,117.6v788.7
			c0,52.1,44.7,94.4,99.7,94.4h824.6c54.8,0,99.5-42.3,99.7-94.4V117.6C1024,65.6,979.3,23.3,924.3,23.3z M707.7,86.3
			c33.2,0,60.3,28.3,60.3,63c0,34.8-26.9,63-60.3,63c-33.2,0-60.3-28.3-60.3-63C647.5,114.6,674.5,86.3,707.7,86.3z M316.3,86.3
			c33.2,0,60.3,28.3,60.3,63c0,34.8-27,63-60.3,63c-33.2,0-60.3-28.3-60.3-63C256,114.6,283,86.3,316.3,86.3z M953.9,937.9H70.1
			c-2.5,0-4.4-0.8-5.1-0.8c-0.3,0-0.5,0.2-0.6,0.5l-0.4-662.1h895.9l0.4,660.2C959.9,936.2,957.8,937.9,953.9,937.9z M418.9,535.3
			h186.2V349.1H418.9V535.3z M698.2,814.5h186.2V628.3H698.2V814.5z"/>
	</g>
</g>
</svg>
