<svg id="图层_1" data-name="图层 1" xmlns="http://www.w3.org/2000/svg" viewBox="0 0 1015.5 1015.4"><defs><style>.cls-1{fill:#949ea7;fill-rule:evenodd;}</style></defs><title>画板 16</title><path class="cls-1" d="M846.84,148.47H182.45A165.66,165.66,0,0,0,16.79,314.14V699A165.66,165.66,0,0,0,182.45,864.63H846.84A165.67,165.67,0,0,0,1012.5,699V314.14A165.67,165.67,0,0,0,846.84,148.47ZM517.41,359.54H899v65H517.41Zm0,126.46H899v65H517.41ZM240.7,284.73A85.09,85.09,0,0,1,263.81,268a84.09,84.09,0,0,1,37.25-8.89,85.31,85.31,0,0,1,60.36,25.63,89.11,89.11,0,0,1,0,123.78,83.88,83.88,0,0,1-120.72,0,86.57,86.57,0,0,1-13.44-18.1A89,89,0,0,1,240.7,284.73ZM132,593.16c18.69-70.59,85.63-123.11,165.8-124.5,1.09,0,2.18,0,3.28,0,96.26,0,174.3,73.7,174.3,164.62H126.76A156.07,156.07,0,0,1,132,593.16Zm769.74,162h-775v-65h775Z"/></svg>