<svg id="图层_1" data-name="图层 1" xmlns="http://www.w3.org/2000/svg" viewBox="0 0 1024 1024"><defs><style>.cls-1{fill:#949ea7;fill-rule:evenodd;}</style></defs><title>画板 5</title><path class="cls-1" d="M858.48,319.57q.95,13,.85,26.18c0,1.87-.14,18.38-4.24,45.69-21,119.75-113.62,258-188.28,353.39a52.15,52.15,0,0,1-6.28,7.59c-52.29,62.08-104.8,103.84-107,105.57l-36.49,28.9-36.76-28.7c-2.33-1.67-55-43-107.27-105.17a59.37,59.37,0,0,1-6.21-7.46c-61.23-78-165.68-225.66-188.37-353.71L48.53,405.66v605.82l47.19-15.84L332,916.88,662.17,1012l323-94.48V306.1ZM421.38,661.43a42.19,42.19,0,0,0,3.95,5.33c33.28,44.38,66.78,73.93,68.26,75.11L517,762.38l23.21-20.64a558.06,558.06,0,0,0,68.08-75.41,35.66,35.66,0,0,0,4-5.42C659.8,592.74,718.77,494,732.11,408.49c2.61-19.51,2.69-31.31,2.69-32.64.5-63.88-22.63-123.93-65-168.88-41.23-43.48-95.52-67.46-153-67.46-57.31,0-111.47,24-152.47,67.51-42.62,45.19-65.84,105.57-65.44,169.89a251.62,251.62,0,0,0,2.56,31.39C315.72,499.88,382.35,605.63,421.38,661.43Zm95.39-367.22c50.07,0,90.76,42.87,90.76,95.67s-40.69,95.62-90.76,95.62S426,442.64,426,389.89,466.74,294.22,516.77,294.22Z"/></svg>