<?xml version="1.0" encoding="utf-8"?>
<!-- Generator: Adobe Illustrator 18.0.0, SVG Export Plug-In . SVG Version: 6.00 Build 0)  -->
<!DOCTYPE svg PUBLIC "-//W3C//DTD SVG 1.1//EN" "http://www.w3.org/Graphics/SVG/1.1/DTD/svg11.dtd">
<svg version="1.1" id="图层_1" xmlns="http://www.w3.org/2000/svg" xmlns:xlink="http://www.w3.org/1999/xlink" x="0px" y="0px"
	 viewBox="0 0 1024 1024" style="enable-background:new 0 0 1024 1024;" xml:space="preserve">
<style type="text/css">
	.st0{fill-rule:evenodd;clip-rule:evenodd;}
</style>
<g>
	<path class="st0" d="M748.503,206.495c29.125,0,52.768,23.524,52.768,52.498V503.95L511.337,801.406h8.221H308.206
		c-29.15,0-52.755-23.418-52.755-52.32v-542.59h-17.607H748.503L748.503,206.495z M220.237,171.5v17.498v560.088
		c0,48.243,39.384,87.315,87.969,87.315h211.352h7.383l5.175-5.233l299.321-302.685l5.049-5.105v-7.159V258.993
		c0-48.292-39.4-87.493-87.983-87.493h-510.66H220.237L220.237,171.5z"/>
	<path class="st0" d="M783.285,645.213l66.001,66l13.566,14.504l72.55-73.096l-94.592-95.138l-71.171,74.632L783.285,645.213
		L783.285,645.213z M886.855,650.152l-26.304,26.473l-44.142-42.57l25.437-27.631L886.855,650.152L886.855,650.152z"/>
	<path class="st0" d="M778.903,621.633L588.002,812.535l-3.716,3.715l-1.03,5.153L565.9,908.176l-5.105,25.527l25.527-5.105
		l86.773-17.355l5.153-1.03l3.715-3.716l190.902-190.902l12.271-12.271l-12.271-12.272l-69.419-69.418l-12.272-12.272
		L778.903,621.633L778.903,621.633L778.903,621.633L778.903,621.633z M790.966,658.832l45.175,44.582L660.343,877.207
		l-56.298,12.236l14.016-57.873L790.966,658.832L790.966,658.832z"/>
	<path class="st0" d="M318.931,463.407h402.644c9.725,0,17.608-7.26,17.608-16.217c0-8.956-7.883-16.216-17.608-16.216H318.931
		c-9.725,0-17.608,7.26-17.608,16.216C301.322,456.147,309.206,463.407,318.931,463.407L318.931,463.407L318.931,463.407
		L318.931,463.407z"/>
	<path class="st0" d="M318.931,349.888h402.644c9.725,0,17.608-7.261,17.608-16.217c0-8.956-7.883-16.217-17.608-16.217H318.931
		c-9.725,0-17.608,7.261-17.608,16.217C301.322,342.627,309.206,349.888,318.931,349.888L318.931,349.888L318.931,349.888
		L318.931,349.888z"/>
</g>
</svg>
