<?xml version="1.0" encoding="utf-8"?>
<!-- Generator: Adobe Illustrator 18.0.0, SVG Export Plug-In . SVG Version: 6.00 Build 0)  -->
<!DOCTYPE svg PUBLIC "-//W3C//DTD SVG 1.1//EN" "http://www.w3.org/Graphics/SVG/1.1/DTD/svg11.dtd">
<svg version="1.1" id="图层_1" xmlns="http://www.w3.org/2000/svg" xmlns:xlink="http://www.w3.org/1999/xlink" x="0px" y="0px"
	 viewBox="0 0 1024 1024" style="enable-background:new 0 0 1024 1024;" xml:space="preserve">
<style type="text/css">
	.st0{fill-rule:evenodd;clip-rule:evenodd;}
</style>
<g>
	<path class="st0" d="M793.859,184.954H229.978c-25.836,0-46.99,21.155-46.99,46.99v563.882c0,25.835,21.155,46.991,46.99,46.991
		h563.881c25.835,0,46.99-21.155,46.99-46.991V231.944C840.849,206.108,819.695,184.954,793.859,184.954L793.859,184.954z
		 M793.859,795.826H229.978V231.944h563.881V795.826L793.859,795.826z"/>
	<polygon class="st0" points="417.939,325.926 699.878,325.926 699.878,372.916 417.939,372.916 417.939,325.926 	"/>
	<polygon class="st0" points="323.959,325.926 370.949,325.926 370.949,372.916 323.959,372.916 323.959,325.926 	"/>
	<polygon class="st0" points="417.939,419.906 699.878,419.906 699.878,466.896 417.939,466.896 417.939,419.906 	"/>
	<polygon class="st0" points="323.959,419.906 370.949,419.906 370.949,466.896 323.959,466.896 323.959,419.906 	"/>
	<polygon class="st0" points="417.939,560.874 699.878,560.874 699.878,607.865 417.939,607.865 417.939,560.874 	"/>
	<polygon class="st0" points="323.959,560.874 370.949,560.874 370.949,607.865 323.959,607.865 323.959,560.874 	"/>
	<polygon class="st0" points="417.939,654.856 699.878,654.856 699.878,701.844 417.939,701.844 417.939,654.856 	"/>
	<polygon class="st0" points="323.959,654.856 370.949,654.856 370.949,701.844 323.959,701.844 323.959,654.856 	"/>
</g>
</svg>
