<?xml version="1.0" encoding="utf-8"?>
<!-- Generator: Adobe Illustrator 18.0.0, SVG Export Plug-In . SVG Version: 6.00 Build 0)  -->
<!DOCTYPE svg PUBLIC "-//W3C//DTD SVG 1.1//EN" "http://www.w3.org/Graphics/SVG/1.1/DTD/svg11.dtd">
<svg version="1.1" id="图层_1" xmlns="http://www.w3.org/2000/svg" xmlns:xlink="http://www.w3.org/1999/xlink" x="0px" y="0px"
	 viewBox="0 0 1024 1024" style="enable-background:new 0 0 1024 1024;" xml:space="preserve">
<style type="text/css">
	.st0{fill-rule:evenodd;clip-rule:evenodd;}
</style>
<g>
	<path class="st0" d="M910.189,682.803L781.002,510.718c21.943-42.104,34.526-89.855,34.526-140.579
		c0-168.419-137.063-305.484-305.531-305.484c-168.419,0-305.482,137.065-305.482,305.484c0,51.02,12.73,99.071,34.923,141.373
		L110.842,682.803c-5.152,6.836-6.588,15.752-3.913,23.875c2.625,8.125,9.064,14.415,17.238,16.843l111.702,33.783l56.173,105.51
		c4.111,7.728,11.839,12.879,20.557,13.771c0.841,0.05,1.684,0.099,2.525,0.099c7.827,0,15.258-3.517,20.261-9.61l156.53-192.294
		c6.044,0.396,11.988,0.94,18.081,0.94c6.439,0,12.681-0.545,19.022-0.94l156.629,192.294c5.003,6.093,12.432,9.61,20.259,9.61
		c0.843,0,1.685-0.049,2.528-0.099c8.718-0.892,16.446-6.043,20.556-13.771l56.173-105.51l111.701-33.783
		c8.174-2.426,14.613-8.718,17.24-16.843C916.777,698.555,915.34,689.639,910.189,682.803L910.189,682.803z M319.732,803.47
		l-42.799-80.345c-3.27-6.142-8.867-10.699-15.504-12.731l-86.34-26.104l94.662-126.067
		c40.519,51.665,97.237,89.857,162.475,107.095L319.732,803.47L319.732,803.47z M257.614,370.139
		c0-139.095,113.237-252.331,252.381-252.331c139.193,0,252.43,113.236,252.43,252.331c0,139.193-113.237,252.429-252.43,252.429
		C370.851,622.569,257.614,509.332,257.614,370.139L257.614,370.139z M759.602,710.394c-6.638,2.032-12.235,6.589-15.504,12.731
		l-42.799,80.345L588.558,665.07c65.239-17.386,121.857-55.677,162.228-107.489l95.156,126.71L759.602,710.394L759.602,710.394z"/>
</g>
</svg>
