<?xml version="1.0" encoding="utf-8"?>
<!-- Generator: Adobe Illustrator 18.0.0, SVG Export Plug-In . SVG Version: 6.00 Build 0)  -->
<!DOCTYPE svg PUBLIC "-//W3C//DTD SVG 1.1//EN" "http://www.w3.org/Graphics/SVG/1.1/DTD/svg11.dtd">
<svg version="1.1" id="图层_1" xmlns="http://www.w3.org/2000/svg" xmlns:xlink="http://www.w3.org/1999/xlink" x="0px" y="0px"
	 viewBox="0 0 1024 1024" style="enable-background:new 0 0 1024 1024;" xml:space="preserve">
<style type="text/css">
	.st0{fill-rule:evenodd;clip-rule:evenodd;}
</style>
<g>
	<path class="st0" d="M759.692,497.741h55.783c7.654,0,13.859,6.205,13.859,13.859c0,7.654-6.205,13.859-13.859,13.859h-55.783
		c-6.944,126.742-108.49,228.288-235.232,235.232v55.783c0,7.654-6.206,13.859-13.859,13.859c-7.655,0-13.859-6.205-13.859-13.859
		v-55.783c-126.742-6.943-228.289-108.49-235.232-235.232h-55.783c-7.654,0-13.859-6.206-13.859-13.859
		c0-7.655,6.205-13.859,13.859-13.859h55.783c6.943-126.742,108.49-228.289,235.232-235.232v-55.783
		c0-7.654,6.205-13.859,13.859-13.859c7.654,0,13.859,6.205,13.859,13.859v55.783C651.201,269.452,752.747,370.999,759.692,497.741
		L759.692,497.741z M801.643,802.643v-69.337c0-7.539,6.209-13.818,13.859-13.818c7.706,0,13.859,6.181,13.859,13.818v83.238
		c0,3.756-1.553,7.207-4.047,9.729c-2.57,2.628-6.095,4.102-9.771,4.088h-83.238c-7.539,0-13.818-6.209-13.818-13.859
		c0-7.706,6.181-13.859,13.818-13.859H801.643L801.643,802.643z M801.643,220.557h-69.337c-7.539,0-13.818-6.209-13.818-13.859
		c0-7.706,6.181-13.859,13.818-13.859h83.238c3.756,0,7.206,1.553,9.729,4.047c2.55,2.509,4.089,5.96,4.089,9.771v83.238
		c0,7.54-6.209,13.818-13.859,13.818c-7.705,0-13.859-6.181-13.859-13.818V220.557L801.643,220.557z M195.885,826.273
		c-2.585-2.579-4.041-6.078-4.047-9.729v-83.238c0-7.623,6.153-13.818,13.859-13.818c7.65,0,13.859,6.279,13.859,13.818v69.337
		h69.337c7.623,0,13.818,6.154,13.818,13.859c0,7.65-6.279,13.859-13.818,13.859h-83.238c-3.657,0.01-7.168-1.436-9.757-4.019
		L195.885,826.273L195.885,826.273z M195.927,196.885c2.579-2.584,6.078-4.041,9.729-4.047h83.238
		c7.623,0,13.818,6.153,13.818,13.859c0,7.65-6.279,13.859-13.818,13.859h-69.337v69.338c0,7.623-6.154,13.818-13.859,13.818
		c-7.65,0-13.859-6.279-13.859-13.818v-83.238c0-3.811,1.525-7.262,4.019-9.757L195.927,196.885L195.927,196.885z M510.6,733.347
		c122.473,0,221.747-99.274,221.747-221.747c0-122.474-99.274-221.747-221.747-221.747c-122.474,0-221.747,99.273-221.747,221.747
		C288.853,634.073,388.127,733.347,510.6,733.347L510.6,733.347z M510.6,608.615c-53.579,0-97.014-43.435-97.014-97.014
		s43.435-97.014,97.014-97.014s97.014,43.435,97.014,97.014S564.179,608.615,510.6,608.615L510.6,608.615z M510.6,580.896
		c24.758,0.002,47.638-13.205,60.018-34.646c12.38-21.441,12.38-47.859,0-69.3c-12.38-21.442-35.259-34.649-60.018-34.647
		c-38.268,0.004-69.289,31.028-69.289,69.296S472.331,580.893,510.6,580.896L510.6,580.896z"/>
</g>
</svg>
