<?xml version="1.0" encoding="utf-8"?>
<!-- Generator: Adobe Illustrator 21.0.2, SVG Export Plug-In . SVG Version: 6.00 Build 0)  -->
<svg version="1.1" id="图层_1" xmlns="http://www.w3.org/2000/svg" xmlns:xlink="http://www.w3.org/1999/xlink" x="0px" y="0px"
	 viewBox="0 0 1024 1024" style="enable-background:new 0 0 1024 1024;" xml:space="preserve">
<style type="text/css">
	.st0{fill-rule:evenodd;clip-rule:evenodd;fill:#D4D9DE;}
</style>
<path class="st0" d="M826.3,434.1V276.2C826.3,117.5,721.3,0,519.4,0c-202,0-306.9,117.5-306.9,276.2v157.8
	c-49.4,59.9-87.7,152.1-87.7,232.8c0,198.3,176.7,359.1,394.6,359.1S914,865.2,914,666.9C914,586.2,875.7,494,826.3,434.1z
	 M597.5,740.3c0,27.3-35,49.5-78.3,49.5c-43.3,0-78.3-22.1-78.3-49.5V601.7c0-27.3,35-49.5,78.3-49.5c43.2,0,78.3,22.1,78.3,49.5
	V740.3z M738.6,355.1c-73-44-311.4-59-438.5,0v-39.5c0-108.2,65-236.7,219.2-236.7c154.2,0,219.2,105.4,219.2,236.7V355.1z"/>
</svg>
