<?xml version="1.0" encoding="utf-8"?>
<!-- Generator: Adobe Illustrator 21.0.2, SVG Export Plug-In . SVG Version: 6.00 Build 0)  -->
<svg version="1.1" id="图层_1" xmlns="http://www.w3.org/2000/svg" xmlns:xlink="http://www.w3.org/1999/xlink" x="0px" y="0px"
	 viewBox="0 0 1024 1024" style="enable-background:new 0 0 1024 1024;" xml:space="preserve">
<style type="text/css">
	.st0{fill:#D4D9DE;}
</style>
<g>
	<g>
		<path class="st0" d="M555.6,924.2v-175c0-56.7,45.1-102.9,100.4-102.9h205.5C816.2,602.7,764,568.2,706,543.8
			c-16.7-7-33.6-13.1-50.8-18.3c19-11.6,36.8-25.5,53-41.6c53.4-53.2,82.9-124,82.9-199.3s-29.4-146-82.9-199.3
			C654.8,32.2,583.8,2.9,508.2,2.9c-75.6,0-146.6,29.3-200.1,82.5c-53.4,53.2-82.9,124-82.9,199.3s29.4,146,82.9,199.3
			c16.2,16.1,34,30,53,41.6c-17.2,5.2-34.1,11.3-50.8,18.3c-60.5,25.5-114.9,62-161.5,108.5c-46.7,46.5-83.3,100.6-108.9,160.9
			C13.4,875.6,0,941.9,0,1010.2c0,5.6,0.1,11.1,0.3,16.6h643.4l0.2-0.5C594.2,1020.2,555.6,976.7,555.6,924.2z M902.9,747.1H679.6
			c-15.4,0-27.9,11.7-27.9,26.1v133.3c0,14.4,12.5,26.1,27.9,26.1h223.3c15.4,0,27.9-11.7,27.9-26.1V773.3
			C930.9,758.8,918.3,747.1,902.9,747.1z"/>
	</g>
</g>
</svg>
