<?xml version="1.0" encoding="utf-8"?>
<!-- Generator: Adobe Illustrator 21.0.2, SVG Export Plug-In . SVG Version: 6.00 Build 0)  -->
<svg version="1.1" id="图层_1" xmlns="http://www.w3.org/2000/svg" xmlns:xlink="http://www.w3.org/1999/xlink" x="0px" y="0px"
	 viewBox="0 0 1024 1024" style="enable-background:new 0 0 1024 1024;" xml:space="preserve">
<style type="text/css">
	.st0{fill-rule:evenodd;clip-rule:evenodd;fill:#D4D9DE;}
</style>
<g>
	<g>
		<path class="st0" d="M820.4,182H209.4C96.9,182,5.8,273.2,5.8,385.7v271.5c0,112.5,91.2,203.6,203.7,203.6h610.9
			c112.5,0,203.6-91.2,203.6-203.6V385.7C1024,273.2,932.8,182,820.4,182z M517.7,382h390.2v61.7H517.7V382z M517.7,501.9h390.2
			v61.6H517.7V501.9z M234.7,311.1c6.9-6.5,14.9-11.8,23.6-15.9c11.8-5.4,24.9-8.4,38.1-8.4c22.9,0,45.6,8.9,61.7,24.3
			c16.2,15.4,25.6,37,25.6,58.7c0,21.7-9.4,43.3-25.6,58.6c-16.2,15.4-38.9,24.3-61.7,24.3c-22.8,0-45.6-8.9-61.7-24.3
			c-5.4-5.1-10-10.9-13.7-17.1c-7.6-12.6-11.8-27-11.8-41.5C209.2,348.1,218.6,326.5,234.7,311.1z M123.5,603.5
			c19.1-66.9,87.6-116.7,169.6-118c1.1,0,2.2-0.1,3.3-0.1c98.4,0,178.2,69.9,178.2,156.1H118.2C118.2,628.4,120.1,615.6,123.5,603.5
			z M910.7,757.1H118.2v-61.6h792.5V757.1z"/>
	</g>
</g>
</svg>
