<?xml version="1.0" encoding="utf-8"?>
<!-- Generator: Adobe Illustrator 21.0.2, SVG Export Plug-In . SVG Version: 6.00 Build 0)  -->
<svg version="1.1" id="图层_1" xmlns="http://www.w3.org/2000/svg" xmlns:xlink="http://www.w3.org/1999/xlink" x="0px" y="0px"
	 viewBox="0 0 1024 1024" style="enable-background:new 0 0 1024 1024;" xml:space="preserve">
<path d="M773.8,768H313V435.2c0-128,102.4-230.4,230.4-230.4s230.4,102.4,230.4,230.4 M876.2,716.8V435.2
	c0-157.2-109.6-288.8-256-323.6V76.8c0-42.4-34.4-76.8-76.8-76.8s-76.8,34.4-76.8,76.8v34.8c-146.9,34.8-256,166.4-256,323.6v281.6
	L108.2,819.2v51.2h870.4v-51.2 M543.4,1024c56.6,0,102.4-45.8,102.4-102.4H441C441,978.2,486.8,1024,543.4,1024z"/>
</svg>
