<svg id="图层_1" data-name="图层 1" xmlns="http://www.w3.org/2000/svg" viewBox="0 0 1024 1024"><defs><style>.cls-1{fill:#cad3d8;fill-rule:evenodd;}</style></defs><title>画板 5</title><path class="cls-1" d="M739.72,1011.79c-64,0-146.69-43.07-204.77-79.21C457.18,884.18,373.39,817.23,299,744.07l-.27-.27-23.61-23.85c-72.46-75.09-138.75-159.7-186.69-238.24C52.67,423.08,10,339.61,10,274.94c0-69.19,49-142.63,70.06-171C96.51,81.81,153.94,9.6,202.74,9.6c20,0,41.61,13.23,70,42.94,25.09,26.27,49.16,58.91,64.93,81.67,21.18,30.55,40.78,62.55,55.18,90.09,23.3,44.59,26,63.73,26,74.23,0,21.2-11,39.59-32.58,54.65-14.24,9.91-31.33,17.37-47.86,24.59-11.15,4.87-28.95,12.65-35.74,18.11,2.37,10.12,12.72,34.59,40.7,76.08,26.08,38.65,59.79,80.54,90.25,112.12,31.28,30.75,72.75,64.81,111,91.13,41.05,28.24,65.29,38.71,75.33,41.1,5.4-6.86,13.1-24.83,17.92-36.07,7.15-16.69,14.55-34,24.37-48.34C677.18,610,695.38,599,716.38,599c10.4,0,29.34,2.72,73.5,26.24,27.27,14.55,59,34.33,89.22,55.72C901.63,696.88,934,721.18,960,746.52c29.41,28.64,42.52,50.43,42.52,70.66,0,49.27-71.51,107.28-93.43,123.86-28.1,21.29-100.83,70.76-169.35,70.76h0m-50.9-522.32a21.54,21.54,0,0,1-21.12-17.93c-5.26-30.09-22.51-56.25-48.6-73.62-26.45-17.63-58.79-24.18-91.05-18.44a21.68,21.68,0,0,1-7.46-42.71c43.13-7.69,86.51,1.18,122.17,25,36,24,59.91,60.34,67.24,102.3a21.53,21.53,0,0,1-21.18,25.45h0m129.29-56A21.53,21.53,0,0,1,797,415.55c-10.2-58.41-43.62-109.11-94.1-142.75C652,238.9,589.92,226.3,528,237.32a21.68,21.68,0,0,1-7.46-42.71c72.75-12.95,145.89,1.95,206,42C787,276.88,827,337.76,839.27,408a21.67,21.67,0,0,1-17.42,25.13,22.37,22.37,0,0,1-3.75.32h0m172.62-16.16a21.54,21.54,0,0,1-21.13-17.93c-17.4-99.66-74.39-186.16-160.46-243.52-86.43-57.61-191.9-79-297-60.33a21.67,21.67,0,0,1-7.44-42.7c115.92-20.65,232.43,3.09,328.07,66.83,96,64,159.62,160.67,179.09,272.19A21.66,21.66,0,0,1,994.47,417a20.73,20.73,0,0,1-3.75.34h0m0,0"/></svg>