<?xml version="1.0" encoding="utf-8"?>
<!-- Generator: Adobe Illustrator 21.0.2, SVG Export Plug-In . SVG Version: 6.00 Build 0)  -->
<svg version="1.1" id="图层_1" xmlns="http://www.w3.org/2000/svg" xmlns:xlink="http://www.w3.org/1999/xlink" x="0px" y="0px"
	 viewBox="0 0 1024 1024" style="enable-background:new 0 0 1024 1024;" xml:space="preserve">
<style type="text/css">
	.st0{fill-rule:evenodd;clip-rule:evenodd;fill:#D4D9DE;}
</style>
<path class="st0" d="M466.6,441.3c-46.1,47.8-123.2,127.8-164.6,170.8c-26.2,25.1-10.2,51.6,3.3,51.6c48.9,0,152.5,0,152.5,0v341.3
	l97.7,0l3.9-341.3c0,0,107.7,0,152.5,0c6.9,0,1.5-37.3-8.7-47.1c-38.2-41.1-114.8-123.7-161-173.5C516.9,419,499.2,410,466.6,441.3z
	 M0.1,154.1V881c0,0-8,124.1,97.1,124.1c69.7,0,159.6,0,208.7,0c69.4,0,54.5-124.1-7-124.1c-37.3,0-91.5,0-132.2,0
	c-74.2,0-55.6,24.1-55.6-72.2c0-117.6,0-349.3,0-467.1c0-39.9,10.7-72.4,83.5-72.4c159.4,0,504,0,646.9,0
	c34.2,0,64.1,10.1,64.1,65.7c0,117.6,0,362.9,0,480.4c0,66.5,0.3,65.5-78,65.5c-37.3,0-80.4,0-111.3,0c-52.2,0-100,124.1,34.8,124.1
	c49.2,0,113.8,0,166.9,0c106.1,0,98.7-124.1,98.7-124.1V154.1c0,0,8-124.1-105.6-124.1c-186.8,0-575,0-779.1,0
	C-0.8,30,0.1,154.1,0.1,154.1z"/>
</svg>
