<?xml version="1.0" encoding="utf-8"?>
<!-- Generator: Adobe Illustrator 21.0.2, SVG Export Plug-In . SVG Version: 6.00 Build 0)  -->
<svg version="1.1" id="图层_1" xmlns="http://www.w3.org/2000/svg" xmlns:xlink="http://www.w3.org/1999/xlink" x="0px" y="0px"
	 viewBox="0 0 1024 1024" style="enable-background:new 0 0 1024 1024;" xml:space="preserve">
<style type="text/css">
	.st0{fill-rule:evenodd;clip-rule:evenodd;fill:#D4D9DE;}
</style>
<g>
	<g>
		<path class="st0" d="M567.6,814.3l29-7.8h0C443.6,654,500.4,509,722.8,313.3L829.3,406c7.6,6.6,19,8.9,29.3,5
			c3.3-1.3,6.5-3.1,9-5.4c5-4.4,8.2-10.5,8.2-17.1l57.1-361.3c0.3-13.2-11.8-23.7-26.8-23.5L492.7,54.9c-11,0.2-21.1,6.3-25.5,15.2
			c-4.4,9-1.9,18.9,5.8,25.6l108.4,94.5C354.9,389.5,232.2,615.4,567.6,814.3z M893,458.6v314.2c0,49.2-20.2,125.6-62.8,125.6H201.9
			c-42.7,0-62.8-13.7-62.8-62.8V270.1c0-49.1,20.1-125.7,62.8-125.7h125.7V18.8l-159.5,0c-85.4,0-154.6,79.7-154.6,178V846
			c0,98.3,69.2,178,154.6,178H864c85.4,0,154.7-79.7,154.7-178V463.8L893,458.6z"/>
	</g>
</g>
</svg>
