<svg id="图层_1" data-name="图层 1" xmlns="http://www.w3.org/2000/svg" viewBox="0 0 1024 1024"><defs><style>.cls-1{fill:#d4d9de;fill-rule:evenodd;}</style></defs><title>图标</title><path class="cls-1" d="M848.65,527.82l51.74,56.39c-.11-83.51-.25-153-.25-157.56V123.16c0-67.84-30.94-101.16-103-101.16H127.65c-72.07,0-103,33.32-103,101.16V881.87c0,67.83,30.94,101.15,103,101.15H672.91V864.59H539.63ZM246.87,197h396.3c18,0,30,17.09,30,28.24,0,17-12,28.24-30,28.24H246.87c-18,0-30-11.27-30-28.24S228.85,197,246.87,197ZM216.89,412c0-17,12-28.21,30-28.21H643.16c18,0,30,11.25,30,28.21s-12,28.24-30,28.24H246.87C228.85,440.21,216.89,429,216.89,412ZM900.48,663c0-26.62-.05-53.37-.09-78.83l-.06,78.63L874.4,628.93,745.64,797.35h66.64V983.06H936.51V797.35h66.64Z"/></svg>