<svg id="图层_1" data-name="图层 1" xmlns="http://www.w3.org/2000/svg" viewBox="0 0 1024 1024"><defs><style>.cls-1{fill:#d4d9de;}</style></defs><title>图标</title><path class="cls-1" d="M1007.69,433.51,732.11,702.86l-.54-.52C721.36,713.89,683.88,718.1,667,718.1c-30.75,0-71.52-41.47-71.52-71.53V575.05H381c-30.74,0-80.77-41.09-80.77-71.14,0-.72.39-1.34.41-2h-.13V470L158.94,608.39,300.5,746.73V719.55h1c-1.37-15.47,3.28-31.29,15.39-43.15a56.59,56.59,0,0,1,78.73,0c12.1,11.85,16.75,27.68,15.38,43.15h.89V882.8H411c-1.09,12.3-5.74,24.4-15.38,33.83a56.56,56.56,0,0,1-78.73,0L52.78,658.52c-5.06-2.51-10.11-5.16-14.35-9.31a53.54,53.54,0,0,1,0-77L314,302.92l.52.51c10.21-11.55,24.8-19.22,41.64-19.22,30.74,0,55.67,24.34,55.67,54.4V449.49L667,432c30.74,0,78.57,41.81,78.57,71.89v31.83L887.16,397.39,745.62,259v27.17h-1c1.37,15.49-3.28,31.32-15.38,43.15a56.61,56.61,0,0,1-78.75,0c-12.09-11.82-16.74-27.65-15.38-43.15h-.89V123h.89c1.09-12.33,5.74-24.43,15.38-33.86a56.58,56.58,0,0,1,78.75,0l264,258.09c5.06,2.52,10.12,5.18,14.37,9.33a53.54,53.54,0,0,1,0,77Zm0,0"/></svg>