<svg id="图层_1" data-name="图层 1" xmlns="http://www.w3.org/2000/svg" viewBox="0 0 1024 1024"><defs><style>.cls-1{fill:#d4d9de;}</style></defs><title>图标</title><path class="cls-1" d="M993.07,579.58a396,396,0,0,1-34.26,163.58A446.76,446.76,0,0,1,864.7,879q-59.81,59.23-140.89,97a511.81,511.81,0,0,1-174.53,45.68A90.19,90.19,0,0,1,528,1024H323.23a124.48,124.48,0,0,1-74.57-25.39,107.92,107.92,0,0,1-25.39-27.55,59.74,59.74,0,0,1-.62-65.48,91.82,91.82,0,0,1,24.8-27,134.06,134.06,0,0,1,34.34-18,115.35,115.35,0,0,1,39.08-6.85l183.47,1.17a322.71,322.71,0,0,0,215.36-81.26,272.76,272.76,0,0,0,65.1-87.43q23.65-50.1,23.65-107.71c0-36.08-7-69.9-21.28-101.46a282.4,282.4,0,0,0-58.62-84.58A302.51,302.51,0,0,0,641.62,332a329.06,329.06,0,0,0-107.76-28.81,4.79,4.79,0,0,0-2.9.59c-.44.42-1.4.59-3,.59H339.79v89.1c0,12.78-5.25,22.21-16,28.22S296,423.93,272.32,410.4q-15.41-9.51-30.24-19.8Q188.31,354,135,316.79L75.89,273.87Q60.23,262,45,249.65a33,33,0,0,1-13-26.56c0-9,4.9-18.37,14.8-28.14a351.1,351.1,0,0,1,33.73-29.39q54.12-42.51,109.52-83.5c19.27-14.19,36.62-27.23,52-38.83S268.38,23.44,274.69,19C293.62,6.15,309,3.57,320.86,11.08S339,29.86,339.79,44.89v90.19H528a73.62,73.62,0,0,1,12.44,1.17l12.35,2.26q92.4,9,172.87,46.25a488.48,488.48,0,0,1,140.19,96.46,437.45,437.45,0,0,1,93.49,135.94q33.78,76.65,33.74,162.42Zm0,0"/></svg>