<?xml version="1.0" encoding="utf-8"?>
<!-- Generator: Adobe Illustrator 21.0.2, SVG Export Plug-In . SVG Version: 6.00 Build 0)  -->
<svg version="1.1" id="图层_1" xmlns="http://www.w3.org/2000/svg" xmlns:xlink="http://www.w3.org/1999/xlink" x="0px" y="0px"
	 viewBox="0 0 1024 1024" style="enable-background:new 0 0 1024 1024;" xml:space="preserve">
<style type="text/css">
	.st0{fill-rule:evenodd;clip-rule:evenodd;fill:#333333;}
</style>
<g>
	<g>
		<path class="st0" d="M963,3.1H66C29.6,3.1,0,35,0,74.2v662.9c0,39.2,29.6,71.1,66,71.1l414.2-3v145.9H343l7.4,38.9l-7.4,34h343
			v-72.9h-68.6h-68.6V805.2l414.2,3c36.4,0,66-31.9,66-71.1V74.2C1029,35,999.4,3.1,963,3.1z M548.8,149
			c81.1,0,137.8,42.3,137.8,136c0-1.7-0.6,9.9-0.6,9.9H548.8V149z M489.7,173.2h18.5v158.5h129.7l-1.5,22.8
			C631.2,443.4,566.8,513,489.7,513c-81.1,0-147.1-76.2-147.1-169.9C342.6,249.5,408.6,173.2,489.7,173.2z M960.4,732.3H68.6v-72.9
			h891.8V732.3z"/>
	</g>
</g>
</svg>
