<?xml version="1.0" encoding="utf-8"?>
<!-- Generator: Adobe Illustrator 21.0.2, SVG Export Plug-In . SVG Version: 6.00 Build 0)  -->
<svg version="1.1" id="图层_1" xmlns="http://www.w3.org/2000/svg" xmlns:xlink="http://www.w3.org/1999/xlink" x="0px" y="0px"
	 viewBox="0 0 1024 1024" style="enable-background:new 0 0 1024 1024;" xml:space="preserve">
<style type="text/css">
	.st0{fill-rule:evenodd;clip-rule:evenodd;fill:#28373E;}
</style>
<g>
	<g>
		<path class="st0" d="M887,461.7c-36.9,0-45.6,9.6-45.6,45.6V781c0,35.9-54.4,91.3-91.3,91.3H202.6c-36.9,0-91.3-55.4-91.3-91.3
			V233.5c0-35.9,54.4-91.2,91.3-91.2h410.7c36.9,0,45.6-9.7,45.6-45.6c0-36-8.7-45.6-45.6-45.6l-392.4,0C110.1,51,20,138.8,20,246.6
			v488.9c0,107.8,71.8,228.1,182.5,228.1h553.7c110.7,0,176.3-120.3,176.3-228.1V507.3C932.6,471.3,923.9,461.7,887,461.7z
			 M1004.4,70.1c-26.1-25.5-68.5-25.5-94.6,0L436.5,531c-26.2,25.4-26.2,66.7,0,92.2c26.2,25.5,68.5,25.5,94.6,0l473.3-460.9
			C1030.5,136.8,1030.5,95.6,1004.4,70.1z"/>
	</g>
</g>
</svg>
