<?xml version="1.0" encoding="utf-8"?>
<!-- Generator: Adobe Illustrator 21.0.2, SVG Export Plug-In . SVG Version: 6.00 Build 0)  -->
<svg version="1.1" id="图层_1" xmlns="http://www.w3.org/2000/svg" xmlns:xlink="http://www.w3.org/1999/xlink" x="0px" y="0px"
	 viewBox="0 0 1024 1024" style="enable-background:new 0 0 1024 1024;" xml:space="preserve">
<style type="text/css">
	.st0{fill-rule:evenodd;clip-rule:evenodd;fill:#20C6BE;}
</style>
<g>
	<g>
		<path class="st0" d="M516.5,0C234.6,0,6,228.5,6,510.5C6,792.4,234.6,1021,516.5,1021c282,0,510.5-228.6,510.5-510.5
			C1027,228.5,798.5,0,516.5,0z M516.5,936.4c-234.9,0-425.9-191.1-425.9-425.9c0-234.9,191.1-426,425.9-426
			c234.9,0,426,191.1,426,426C942.5,745.4,751.4,936.4,516.5,936.4z M577.4,340.4l-64.3-65.2L281.2,510.5l231.9,235.3l64.3-65.2
			l-122.2-124h257.9v-92.3H455.3L577.4,340.4z"/>
	</g>
</g>
</svg>
