<?xml version="1.0" encoding="utf-8"?>
<!-- Generator: Adobe Illustrator 21.0.2, SVG Export Plug-In . SVG Version: 6.00 Build 0)  -->
<svg version="1.1" id="图层_1" xmlns="http://www.w3.org/2000/svg" xmlns:xlink="http://www.w3.org/1999/xlink" x="0px" y="0px"
	 viewBox="0 0 1024 1024" style="enable-background:new 0 0 1024 1024;" xml:space="preserve">
<style type="text/css">
	.st0{fill-rule:evenodd;clip-rule:evenodd;fill:#A3A3A3;}
</style>
<g>
	<g>
		<path class="st0" d="M282.1,416.3c-2.4-2.3,15.8-85.4,17.3-104.3C117.7,300.1,6.1,482.7,6.1,607.5c0,124.8,100.4,226,224.3,226
			c123.9,0,224.3-101.2,224.3-226C454.6,472.5,375,416.3,282.1,416.3z M230.4,798.7c-104.8,0-189.8-83.2-189.8-191.2
			c0-108,84.3-264.8,224.3-260.7c-1.2,16.4-19.3,102.3-17.3,104.3c111.7,0,172.5,30.9,172.5,152
			C420.1,711.1,335.2,798.7,230.4,798.7z M851.5,416.3c-2.4-2.3,15.8-85.4,17.3-104.3c-181.6-11.9-293.3,170.7-293.3,295.5
			c0,124.8,100.4,226,224.3,226c123.9,0,224.3-101.2,224.3-226C1024,472.5,944.3,416.3,851.5,416.3z M799.7,798.7
			c-104.8,0-189.8-83.2-189.8-191.2c0-108,84.3-264.8,224.3-260.7C833,363.1,815,449,817,451c111.7,0,172.5,30.9,172.5,152
			C989.5,711.1,904.5,798.7,799.7,798.7z"/>
	</g>
</g>
</svg>
