<?xml version="1.0" encoding="utf-8"?>
<!-- Generator: Adobe Illustrator 18.0.0, SVG Export Plug-In . SVG Version: 6.00 Build 0)  -->
<!DOCTYPE svg PUBLIC "-//W3C//DTD SVG 1.1//EN" "http://www.w3.org/Graphics/SVG/1.1/DTD/svg11.dtd">
<svg version="1.1" id="图层_1" xmlns="http://www.w3.org/2000/svg" xmlns:xlink="http://www.w3.org/1999/xlink" x="0px" y="0px"
	 viewBox="0 0 1024 1024" style="enable-background:new 0 0 1024 1024;" xml:space="preserve">
<style type="text/css">
	.st0{clip-path:url(#SVGID_2_);}
</style>
<g>
	<g>
		<defs>
			<rect id="SVGID_1_" x="170.207" y="197.834" width="742.431" height="626.166"/>
		</defs>
		<clipPath id="SVGID_2_">
			<use xlink:href="#SVGID_1_"  style="overflow:visible;"/>
		</clipPath>
		<path class="st0" d="M780.674,544.303H583.595c-9.616,0-19.227-9.617-19.227-19.228c0-9.612,9.612-19.227,19.227-19.227h197.078
			c9.616,0,19.228,9.616,19.228,19.227C799.902,534.686,790.289,544.303,780.674,544.303L780.674,544.303z M766.254,626.018H569.176
			c-9.616,0-19.228-9.613-19.228-19.228c0-9.612,9.613-19.227,19.228-19.227h197.079c9.616,0,19.227,9.616,19.227,19.227
			C785.482,616.406,775.87,626.018,766.254,626.018L766.254,626.018z M766.254,626.018"/>
		<path class="st0" d="M814.322,818.292h-28.84c-9.612,0-19.227-9.616-19.227-19.227s9.616-19.227,19.227-19.227h28.84
			c4.808,0,9.616-4.809,9.616-9.613l52.876-307.637v-9.617c0,0-4.808-4.808-9.616-4.808H271.151c-4.809,0-9.613,4.808-9.613,9.616
			l-52.875,312.445v9.613c0,0,4.804,4.808,9.612,4.808h427.809c9.615,0,19.227,9.612,19.227,19.227
			c0,9.612-9.612,19.228-19.227,19.228H218.275c-14.42,0-24.031-4.809-33.648-14.424c-9.612-9.612-14.42-24.031-9.612-38.452
			l52.875-312.445c4.805-24.035,24.032-38.455,43.261-38.455h596.046c14.424,0,24.036,4.808,33.648,14.42
			c9.615,9.616,14.424,24.035,9.615,38.456l-52.875,312.445C852.778,799.065,833.55,818.292,814.322,818.292L814.322,818.292z
			 M814.322,818.292"/>
	</g>
	<path d="M189.435,784.645c-9.616,0-19.227-9.617-19.227-19.228V241.469c0-24.032,19.227-43.26,43.26-43.26h254.765
		c24.032,0,43.261,19.227,43.261,43.26v38.456H804.71c24.035,0,43.263,19.228,43.263,43.263v91.327
		c0,9.616-9.615,19.228-19.228,19.228c-9.616,0-19.227-9.612-19.227-19.228v-86.523c0-4.804-4.808-9.612-9.616-9.612H482.653
		v-76.911c0-4.804-4.808-9.612-9.616-9.612H218.275c-4.808,0-9.612,4.808-9.612,9.612v523.947
		C208.663,775.028,199.047,784.645,189.435,784.645L189.435,784.645z M189.435,784.645"/>
</g>
</svg>
