<?xml version="1.0" encoding="utf-8"?>
<!-- Generator: Adobe Illustrator 18.0.0, SVG Export Plug-In . SVG Version: 6.00 Build 0)  -->
<!DOCTYPE svg PUBLIC "-//W3C//DTD SVG 1.1//EN" "http://www.w3.org/Graphics/SVG/1.1/DTD/svg11.dtd">
<svg version="1.1" id="图层_1" xmlns="http://www.w3.org/2000/svg" xmlns:xlink="http://www.w3.org/1999/xlink" x="0px" y="0px"
	 viewBox="0 0 1024 1024" style="enable-background:new 0 0 1024 1024;" xml:space="preserve">
<style type="text/css">
	.st0{clip-path:url(#SVGID_2_);}
</style>
<g>
	<g>
		<defs>
			<rect id="SVGID_1_" x="122.729" y="66.5" width="781.705" height="771.761"/>
		</defs>
		<clipPath id="SVGID_2_">
			<use xlink:href="#SVGID_1_"  style="overflow:visible;"/>
		</clipPath>
		<path class="st0" d="M518.742,736.536c-2.994-1.669-7.901-1.669-10.9,0L330.86,835.944c-2.986,1.691-7.888,1.691-10.875,0
			L128.164,728.205c-2.977-1.704-5.435-5.865-5.435-9.307V503.457c0-3.428,2.458-7.607,5.435-9.289l176.986-99.429
			c2.999-1.683,5.448-5.874,5.448-9.302V185.001c0-3.437,2.453-7.62,5.452-9.307l191.792-107.76c2.999-1.703,7.906-1.703,10.9,0
			l191.795,107.76c2.991,1.687,5.449,5.87,5.449,9.307v200.43c0,3.429,2.453,7.624,5.452,9.307l176.976,99.429
			c2.991,1.683,5.444,5.861,5.444,9.289v215.441c0,3.441-2.453,7.602-5.444,9.307L706.606,835.948c-2.99,1.687-7.897,1.687-10.887,0
			l-176.973-99.412H518.742z M721.438,616.5c-2.995,1.674-5.452,5.857-5.452,9.299v165.242c0,3.428,2.457,4.851,5.452,3.169
			l147.309-82.727c3.003-1.678,5.461-5.878,5.461-9.311V536.92c0-3.441-2.458-4.856-5.448-3.178L721.438,616.5z M152.383,702.175
			c0,3.428,2.449,7.629,5.465,9.307L305.15,794.21c2.999,1.682,5.448,0.26,5.448-3.169V625.799c0-3.438-2.449-7.625-5.448-9.299
			l-147.322-82.761c-2.995-1.678-5.445-0.26-5.445,3.182V702.175z M528.117,702.175c0,3.428,2.449,7.629,5.448,9.307l147.313,82.727
			c3.012,1.682,5.452,0.26,5.452-3.169V625.799c0-3.438-2.44-7.625-5.439-9.299l-147.327-82.761
			c-2.994-1.678-5.448-0.26-5.448,3.182V702.175z M345.697,616.5c-2.995,1.674-5.449,5.857-5.449,9.299v165.242
			c0,3.428,2.45,4.851,5.461,3.169l147.315-82.727c2.99-1.678,5.448-5.878,5.448-9.311V536.92c0-3.441-2.458-4.856-5.448-3.178
			L345.697,616.5z M548.392,502.521c-2.999,1.678-2.999,4.447,0,6.134l147.328,82.761c2.99,1.675,7.897,1.675,10.887,0
			l147.331-82.761c2.99-1.687,2.99-4.455,0-6.134l-147.313-82.715c-3.007-1.686-7.914-1.686-10.904,0L548.392,502.521z
			 M172.654,502.521c-2.994,1.678-2.994,4.447,0,6.134l147.328,82.761c2.994,1.675,7.893,1.675,10.878,0l147.331-82.761
			c3.003-1.687,3.003-4.455,0-6.134l-147.322-82.715c-2.994-1.686-7.897-1.686-10.904,0L172.654,502.521z M533.565,298.014
			c-2.994,1.678-5.448,5.852-5.448,9.298v165.293c0,3.429,2.453,4.852,5.448,3.166l147.327-82.745
			c2.999-1.691,5.443-5.865,5.443-9.295V218.417c0-3.425-2.445-4.856-5.443-3.16L533.565,298.014z M340.252,383.732
			c0,3.429,2.449,7.604,5.445,9.295l147.331,82.745c2.99,1.687,5.448,0.264,5.448-3.166V307.312c0-3.446-2.458-7.624-5.448-9.298
			l-147.331-82.757c-2.995-1.696-5.445-0.265-5.445,3.16V383.732z M360.566,184.107c-3.007,1.665-3.007,4.426,0,6.117
			l147.281,82.714c2.999,1.683,7.901,1.683,10.9,0l147.28-82.714c3.007-1.691,3.007-4.452,0-6.117l-147.28-82.783
			c-2.999-1.678-7.906-1.678-10.9,0L360.566,184.107z M360.566,184.107"/>
	</g>
</g>
</svg>
