<?xml version="1.0" encoding="utf-8"?>
<!-- Generator: Adobe Illustrator 18.0.0, SVG Export Plug-In . SVG Version: 6.00 Build 0)  -->
<!DOCTYPE svg PUBLIC "-//W3C//DTD SVG 1.1//EN" "http://www.w3.org/Graphics/SVG/1.1/DTD/svg11.dtd">
<svg version="1.1" id="图层_1" xmlns="http://www.w3.org/2000/svg" xmlns:xlink="http://www.w3.org/1999/xlink" x="0px" y="0px"
	 viewBox="0 0 1024 1024" style="enable-background:new 0 0 1024 1024;" xml:space="preserve">
<style type="text/css">
	.st0{clip-path:url(#SVGID_2_);}
</style>
<g>
	<g>
		<defs>
			<rect id="SVGID_1_" x="161.253" y="186.837" width="659.342" height="660.05"/>
		</defs>
		<clipPath id="SVGID_2_">
			<use xlink:href="#SVGID_1_"  style="overflow:visible;"/>
		</clipPath>
		<path class="st0" d="M243.512,220.197h576.475v-32.942H243.512c-45.483,0-82.355,36.872-82.355,82.352v488.358
			c-0.11,23.332,9.082,45.747,25.544,62.284c16.459,16.537,38.829,25.833,62.165,25.833h483.413
			c23.332,0,45.703-9.295,62.164-25.833c16.459-16.537,25.651-38.951,25.544-62.284V407.137
			c0.107-23.332-9.085-45.744-25.544-62.284c-16.461-16.537-38.832-25.833-62.164-25.833H243.512
			c-17.655,0-33.966-9.418-42.794-24.705c-8.824-15.29-8.824-34.124,0-49.413C209.546,229.616,225.856,220.197,243.512,220.197
			L243.512,220.197z M243.512,351.963h488.767c14.595,0,28.587,5.824,38.87,16.185c10.282,10.361,16.006,24.394,15.896,38.989
			v351.24c0.11,14.595-5.614,28.631-15.896,38.989c-10.283,10.361-24.275,16.188-38.87,16.188H248.865
			c-14.672,0-28.726-5.885-39.021-16.333c-10.295-10.449-15.965-24.592-15.745-39.256V335.08
			C208.302,345.918,225.646,351.843,243.512,351.963L243.512,351.963z M243.512,351.963"/>
	</g>
	<path d="M375.277,604.375c-9.098,0-16.471,7.373-16.471,16.471c0,9.094,7.373,16.471,16.471,16.471h104.176v93.47
		c0,9.097,7.373,16.471,16.471,16.471c9.094,0,16.471-7.373,16.471-16.471v-93.47h93.47c9.098,0,16.471-7.376,16.471-16.471
		c0-9.098-7.373-16.471-16.471-16.471h-93.47v-43.648h93.47c9.098,0,16.471-7.373,16.471-16.472c0-9.094-7.373-16.467-16.471-16.467
		h-68.353l41.176-68.353c2.202-3.754,2.79-8.238,1.625-12.429c-1.166-4.19-3.978-7.731-7.801-9.808
		c-7.75-4.417-17.605-1.863-22.235,5.765l-51.059,84.825h-10.704l-49.002-84.825c-2.149-3.751-5.72-6.478-9.905-7.565
		c-4.184-1.084-8.63-0.437-12.331,1.8c-7.775,4.489-10.521,14.379-6.176,22.236l38.295,68.353h-74.118
		c-9.098,0-16.471,7.373-16.471,16.467c0,9.098,7.373,16.472,16.471,16.472h104.176v44.06L375.277,604.375z M375.277,604.375"/>
</g>
</svg>
