<?xml version="1.0" encoding="utf-8"?>
<!-- Generator: Adobe Illustrator 18.0.0, SVG Export Plug-In . SVG Version: 6.00 Build 0)  -->
<!DOCTYPE svg PUBLIC "-//W3C//DTD SVG 1.1//EN" "http://www.w3.org/Graphics/SVG/1.1/DTD/svg11.dtd">
<svg version="1.1" id="图层_1" xmlns="http://www.w3.org/2000/svg" xmlns:xlink="http://www.w3.org/1999/xlink" x="0px" y="0px"
	 viewBox="0 0 1024 1024" style="enable-background:new 0 0 1024 1024;" xml:space="preserve">
<style type="text/css">
	.st0{fill:#787D88;}
</style>
<g>
	<path class="st0" d="M774.107,856.232H247.195c-29.676,0-53.831-24.159-53.831-53.832V223.373
		c0-29.676,24.154-53.831,53.831-53.831h181.126c15.289,0,29.858,6.515,40.078,17.912l57.904,64.689
		c2.084,2.261,4.979,3.619,8.054,3.619h239.841c29.676,0,53.831,24.156,53.831,53.832V802.49
		C827.938,832.073,803.784,856.232,774.107,856.232L774.107,856.232z M247.195,212.606c-5.97,0-10.768,4.798-10.768,10.768V802.4
		c0,5.971,4.798,10.765,10.768,10.765h526.913c5.97,0,10.768-4.793,10.768-10.765V309.505c0-5.972-4.797-10.768-10.768-10.768
		H534.266c-15.289,0-29.858-6.515-40.082-17.912l-57.899-64.599c-1.993-2.261-4.979-3.62-8.054-3.62H247.195z M247.195,212.606"/>
	<path class="st0" d="M306.633,461.77c0,14.84,12.032,26.872,26.873,26.872c14.84,0,26.868-12.032,26.868-26.872
		c0-14.841-12.028-26.872-26.868-26.872C318.666,434.898,306.633,446.929,306.633,461.77L306.633,461.77z M306.633,461.77"/>
	<path class="st0" d="M693.226,483.301H420.452c-11.855,0-21.536-9.681-21.536-21.531c0-11.851,9.681-21.531,21.536-21.531h272.684
		c11.851,0,21.531,9.68,21.531,21.531C714.667,473.62,705.078,483.301,693.226,483.301L693.226,483.301z M693.226,483.301"/>
	<path class="st0" d="M306.633,637.106c0,14.841,12.032,26.869,26.873,26.869c14.84,0,26.868-12.028,26.868-26.869
		c0-14.84-12.028-26.872-26.868-26.872C318.666,610.234,306.633,622.266,306.633,637.106L306.633,637.106z M306.633,637.106"/>
	<path class="st0" d="M693.226,658.639H420.452c-11.855,0-21.536-9.681-21.536-21.533c0-11.85,9.681-21.531,21.536-21.531h272.684
		c11.851,0,21.531,9.681,21.531,21.531C714.667,648.957,705.078,658.639,693.226,658.639L693.226,658.639z M693.226,658.639"/>
</g>
</svg>
