<?xml version="1.0" encoding="utf-8"?>
<!-- Generator: Adobe Illustrator 18.0.0, SVG Export Plug-In . SVG Version: 6.00 Build 0)  -->
<!DOCTYPE svg PUBLIC "-//W3C//DTD SVG 1.1//EN" "http://www.w3.org/Graphics/SVG/1.1/DTD/svg11.dtd">
<svg version="1.1" id="图层_1" xmlns="http://www.w3.org/2000/svg" xmlns:xlink="http://www.w3.org/1999/xlink" x="0px" y="0px"
	 viewBox="0 0 1024 1024" style="enable-background:new 0 0 1024 1024;" xml:space="preserve">
<g>
	<path d="M858.87,257.41H167.847c-13.905,0-25.096,11.155-25.096,25.019V733.11c0,13.869,11.186,25.024,25.096,25.024h105.414
		c7.631,0,14.74-3.445,19.554-9.28l140.438-173.58l64.105,52.752c10.252,8.445,25.31,7.402,34.404-2.292l124.654-134.07
		c12.131,7.402,26.355,11.572,41.623,11.572c44.232,0,80.311-35.865,80.311-80.066c0-44.201-35.975-80.061-80.311-80.061
		c-44.238,0-80.312,35.86-80.312,80.061c0,10.638,2.089,20.852,5.956,30.129L511.059,574.335l-65.362-53.795
		c-5.121-4.269-11.813-6.248-18.505-5.627c-6.696,0.621-12.757,3.962-17.048,9.171L261.339,708.093h-68.39V307.452h640.715v400.641
		H487.529c-13.907,0-25.098,11.154-25.098,25.018v122.707H314.984c-13.912,0-25.098,11.161-25.098,25.024
		s11.186,25.019,25.098,25.019h337.46c13.905,0,25.096-11.155,25.096-25.019s-11.186-25.024-25.096-25.024H512.626v-97.682h346.14
		c13.905,0,25.096-11.15,25.096-25.024V282.429C883.966,268.565,872.671,257.41,858.87,257.41L858.87,257.41z M698.038,393.035
		c16.625,0,30.113,13.452,30.113,30.03c0,16.578-13.488,30.025-30.113,30.025c-16.631,0-30.118-13.447-30.118-30.025
		C667.92,406.492,681.407,393.035,698.038,393.035L698.038,393.035z M698.038,393.035"/>
</g>
</svg>
