<?xml version="1.0" encoding="utf-8"?>
<!-- Generator: Adobe Illustrator 18.0.0, SVG Export Plug-In . SVG Version: 6.00 Build 0)  -->
<!DOCTYPE svg PUBLIC "-//W3C//DTD SVG 1.1//EN" "http://www.w3.org/Graphics/SVG/1.1/DTD/svg11.dtd">
<svg version="1.1" id="图层_1" xmlns="http://www.w3.org/2000/svg" xmlns:xlink="http://www.w3.org/1999/xlink" x="0px" y="0px"
	 viewBox="0 0 1024 1024" style="enable-background:new 0 0 1024 1024;" xml:space="preserve">
<style type="text/css">
	.st0{clip-path:url(#SVGID_2_);}
</style>
<g>
	<g>
		<defs>
			<rect id="SVGID_1_" x="80.889" y="109.109" width="860.544" height="771.013"/>
		</defs>
		<clipPath id="SVGID_2_">
			<use xlink:href="#SVGID_1_"  style="overflow:visible;"/>
		</clipPath>
		<path class="st0" d="M898.087,351.221L585.228,134.29c-56.205-44.546-114.618-18.66-138.956,2.165l-332.608,227.91
			c-14.552,9.663-38.03,29.489-31.72,53.579c4.331,16.554,19.68,25.863,45.653,27.682c0.542,0.049,1.071,0.065,1.604,0.065
			l77.586,0.102v344.807c0,48.825,37.737,88.524,84.124,88.524h229.651c6.781,0,12.745-2.996,17.015-7.604
			c4.701-4.302,7.766-10.364,7.766-17.247V649.362h112.9c12.899,0,23.373-10.521,23.373-23.486c0-12.96-10.473-23.506-23.373-23.506
			H545.347v-51.832h112.9c12.899,0,23.373-10.531,23.373-23.486c0-12.985-10.473-23.515-23.373-23.515h-80.577l83.565-89.504
			c8.821-9.476,8.329-24.321-1.074-33.219c-9.406-8.846-24.227-8.389-33.027,1.074L521.526,495.033L419.258,381.135
			c-8.641-9.614-23.417-10.375-33.015-1.705c-9.59,8.698-10.347,23.551-1.706,33.181l81.636,90.925H385.73
			c-12.899,0-23.388,10.531-23.388,23.518c0,12.957,10.477,23.483,23.388,23.483h112.884v51.836H385.73
			c-12.899,0-23.388,10.542-23.388,23.51c0,12.961,10.477,23.482,23.388,23.482h112.884V832.14H290.897
			c-20.616,0-37.374-18.647-37.374-41.539V426.04c0-1.055-0.476-1.941-0.602-2.951c0.028-0.244,0.15-0.452,0.15-0.704
			c0.033-12.976-10.42-23.502-23.343-23.542l-83.252-0.115l327.252-224.226c0.728-0.505,1.551-1.157,2.214-1.735
			c4.078-3.488,40.81-33.324,80.761-1.229c0.46,0.329,0.895,0.651,1.339,0.985l312.937,217.014
			c5.271,3.859,10.912,8.91,15.332,13.497c-2.967,0.143-6.532,0.244-10.847,0.13l-74.415,0.318c-0.211,0-0.382,0.118-0.594,0.118
			c-0.241,0-0.407-0.118-0.643-0.118c-12.912,0-23.385,10.517-23.385,23.502l0.13,363.61c0,22.899-16.773,41.53-37.374,41.53H620.38
			c-12.891,0-23.367,10.51-23.367,23.499c0,12.964,10.477,23.482,23.367,23.482h118.803c46.387,0,84.131-39.703,84.131-88.51
			l-0.081-340.233l51.849-0.22c14.714,0.256,53.957,1.168,63.792-27.983C948.491,393.611,917.772,365.684,898.087,351.221"/>
	</g>
</g>
</svg>
