<svg id="图层_1" data-name="图层 1" xmlns="http://www.w3.org/2000/svg" viewBox="0 0 1024 1024"><defs><style>.cls-1{fill:#20c3bb;fill-rule:evenodd;}</style></defs><title>画板 29</title><path class="cls-1" d="M74.9,329.16H208.29V456.53a50.12,50.12,0,0,0,100.24,0V329.16H442.39a44.49,44.49,0,1,0,0-89H308.53V112.81a50.12,50.12,0,0,0-100.24,0V240.18H74.9a44.49,44.49,0,1,0,0,89ZM896.12,151.68H575.82v77.73H868a74.93,74.93,0,0,1,74.93,74.93V797.92A74.93,74.93,0,0,1,868,872.84H194.28a74.92,74.92,0,0,1-74.92-74.93V595.62H71.92a74.56,74.56,0,0,1-41.51-12.55V836.94A124.88,124.88,0,0,0,155.29,961.82H896.12A124.87,124.87,0,0,0,1021,836.94V276.55A124.87,124.87,0,0,0,896.12,151.68Z"/></svg>