<svg id="图层_1" data-name="图层 1" xmlns="http://www.w3.org/2000/svg" viewBox="0 0 1024 1024"><defs><style>.cls-1{fill:#20c3bb;fill-rule:evenodd;}</style></defs><title>画板 6</title><path class="cls-1" d="M580.64,448c53-25.6,104.42-51.84,152.8-77.52s87.08-45.17,115.69-57.21a197.86,197.86,0,0,1,69-18,102.29,102.29,0,0,1,74.42,30.45,100.88,100.88,0,0,1,31.35,75.54A111.14,111.14,0,0,1,1008.51,455a78.47,78.47,0,0,1-32.63,35.68,1538,1538,0,0,1-349.94,96c23.11,22,51.19,52.08,85.17,89s51.19,57.16,52.78,59.68c12.48,18,29.63,40.49,51.77,67.22a491.17,491.17,0,0,1,46.13,62.87,109.38,109.38,0,0,1,12.8,54.9A103.89,103.89,0,0,1,768.75,1024a155.84,155.84,0,0,1-105.38-76.34,1627.4,1627.4,0,0,1-151-274.51Q450.74,791.59,386.76,908.76a406.21,406.21,0,0,1-61.62,86A94.17,94.17,0,0,1,257.32,1024a99.06,99.06,0,0,1-76-32.95,105.6,105.6,0,0,1-30-70.39,92.71,92.71,0,0,1,12.28-52.84,1893.47,1893.47,0,0,1,236.75-281Q296.8,569.71,215.6,549.2a1125.66,1125.66,0,0,1-172.76-61,80.4,80.4,0,0,1-29-35.67A114.8,114.8,0,0,1,0,401.34a100.91,100.91,0,0,1,31.42-75.65,99.82,99.82,0,0,1,72.17-30.45,199.36,199.36,0,0,1,74,18.76q44.15,19.18,112.55,54.26T446.2,448c-10.68-54.46-19.52-116.93-26.55-187s-10.43-118.54-10.43-144.49a124.23,124.23,0,0,1,28.85-82.18A93.42,93.42,0,0,1,512.69,0,91.43,91.43,0,0,1,586,34.24a136.93,136.93,0,0,1,29,91.41c0,10.36-1.6,30.76-4.42,61.63s-7,67.63-12.23,111.09S587,392,580.64,448v0Z"/></svg>