<svg id="图层_1" data-name="图层 1" xmlns="http://www.w3.org/2000/svg" viewBox="0 0 1024 1024"><defs><style>.cls-1{fill:#cad3d8;fill-rule:evenodd;}</style></defs><title>画板 1</title><path class="cls-1" d="M834.45,8.87H202.58C97.89,8.87,13,93.73,13,198.43V830.29C13,935,97.89,1019.84,202.58,1019.84H834.45C939.14,1019.84,1024,935,1024,830.29V198.43C1024,93.73,939.14,8.87,834.45,8.87Zm63.19,821.42a63.19,63.19,0,0,1-63.19,63.19H202.58a63.19,63.19,0,0,1-63.19-63.19V198.43a63.18,63.18,0,0,1,63.19-63.19H834.45a63.18,63.18,0,0,1,63.19,63.19ZM557.4,242.13c-208.2,0-311.74,121.43-311.74,272.17s121.87,273,272.19,273S790.7,696.93,790.7,475.42H557.4Z"/></svg>