<svg id="图层_1" data-name="图层 1" xmlns="http://www.w3.org/2000/svg" viewBox="0 0 1024 1024"><defs><style>.cls-1{fill:#304b5b;}</style></defs><title>画板 7</title><path class="cls-1" d="M515.24,1022.82C234.27,1022.82,6.48,795,6.48,514S234.27,5.3,515.24,5.3,1024,233.08,1024,514s-227.78,508.77-508.76,508.77ZM226.5,562.21h0v0Zm194.8-268a79.19,79.19,0,1,0,23.2,56A80.16,80.16,0,0,0,421.3,294.21Zm310.48,0a79.17,79.17,0,1,0,23.2,56A80.18,80.18,0,0,0,731.78,294.21Zm44.71,268c-.12,0-.24,0-.35,0s-127.23,8.36-260.89,8.36c-127.06,0-260.89-8.36-260.89-8.36l-.36,0a27.51,27.51,0,0,0-27.5,27.51,27.19,27.19,0,0,0,2.68,11.64c19.94,149,153.41,224.08,286.06,221.93v.22c132.66,2.13,266.14-73,286.07-222.16a27.34,27.34,0,0,0-24.82-39.13Zm27.5,0v.61c0-.2,0-.39,0-.61Z"/></svg>