<svg id="图层_1" data-name="图层 1" xmlns="http://www.w3.org/2000/svg" viewBox="0 0 1024 1024"><defs><style>.cls-1{fill:#ced7dc;}</style></defs><title>画板 1</title><path class="cls-1" d="M709,402.1H642.2V824.7H709V402.1Zm182.3-186H721.2c0-110-102-212.6-212.7-212.6S295.8,106,295.8,216.1H125.7c-36.9,0-85.1,5.8-85.1,42.6s48.2,42.5,85.1,42.5V811.5c0,110.1,59.4,212.6,170.1,212.6H721.2c110.7,0,170.1-102.5,170.1-212.6V301.1c37,0,85.1-5.8,85.1-42.5s-48.1-42.5-85.1-42.5ZM508.5,88.5c71,0,128.3,57,128.3,127.5H380.1c0-70.4,57.5-127.5,128.4-127.5ZM806.2,853.9c0,36.8-48.1,85.1-85.1,85.1H295.8c-36.9,0-85.1-48.3-85.1-85.1V301.1H806.2V853.9ZM575.3,402.1H441.6V824.7H575.3V402.1Zm-200.5,0H308V824.7h66.8V402.1Z"/></svg>