<svg id="图层_1" data-name="图层 1" xmlns="http://www.w3.org/2000/svg" viewBox="0 0 1015.5 1015.4"><defs><style>.cls-1{fill:#ced7dc;}</style></defs><title>画板 16</title><path class="cls-1" d="M394.4,323.3,270.8,240.2c-8.7-5.9-19.3-5.8-27.2,1s-11.1,18.5-8.4,29.6l59.6,427.3c3.7,15.1,17.5,24.4,30.7,20.6l346.4-154c6.6-1.8,11.8-6.6,14.9-12.8a31.13,31.13,0,0,0,3-10.4,30,30,0,0,0-12.8-28L555.6,431.8C691.8,156.8,821.8,61,1015.5,173.2h0V142.1C726.5-140.2,533.3,43.2,394.4,323.3ZM888.6,761.6c0,49.7-20.4,126.9-63.5,126.9H190.4c-43.2,0-63.5-13.8-63.5-63.5V253.8c0-49.6,20.3-126.9,63.5-126.9H317.3V0H156.2C69.9,0,0,80.5,0,179.8V835.6c0,99.3,69.9,179.8,156.2,179.8h703c86.3,0,156.2-80.5,156.2-179.8V449.5l-126.9-5.3V761.6Z"/></svg>