<svg id="图层_1" data-name="图层 1" xmlns="http://www.w3.org/2000/svg" viewBox="0 0 1024 1024"><defs><style>.cls-1{fill:#949ea7;}</style></defs><title>画板 7</title><path class="cls-1" d="M826.5,990.2c-109.2,0-197.7-88.5-197.7-197.7s88.5-197.7,197.7-197.7,197.7,88.6,197.7,197.7S935.7,990.2,826.5,990.2Zm113-225.9H854.8V679.6a28.2,28.2,0,0,0-56.4,0v84.7H713.7a28.2,28.2,0,1,0,0,56.4h84.7v84.7a28.2,28.2,0,0,0,56.4,0V820.7h84.7a28.2,28.2,0,0,0,0-56.4Zm-458-254.1c-140,0-253.4-113.8-253.4-254.1S341.6,2,481.5,2,735,115.8,735,256.1,621.5,510.2,481.5,510.2Zm99.2,66.3a329,329,0,0,1,125.8,25C643,641.5,600.7,712,600.7,792.6c0,124.7,101.1,225.9,225.8,225.9H7.7V908c0-183.1,148-331.5,330.6-331.5Zm330.6,441.9H826.6a225.09,225.09,0,0,0,84.7-16.6v16.6Z"/></svg>