<svg id="图层_1" data-name="图层 1" xmlns="http://www.w3.org/2000/svg" viewBox="0 0 1024 1024"><defs><style>.cls-1{fill:#ced7dc;fill-rule:evenodd;}</style></defs><title>画板 21</title><path class="cls-1" d="M664.19,249C466.58,249,306,406.1,306,599.73S466,950.51,664.19,950.51s358.21-157.15,358.21-350.78C1021.8,406.1,861.8,249,664.19,249ZM789,676.83a26.15,26.15,0,0,1-11.34,2.35H687.47v90.65c0,9.41-4.78,16.47-13.73,21.19-8.36,3.52-16.72,2.35-24.47-3.54-6-5.29-8.36-11.18-8.36-18.82V679.18H548.37a22.36,22.36,0,0,1-21.49-15.3,21.67,21.67,0,0,1,6.57-24.72c4.78-4.12,10.15-5.29,16.12-5.29h84.78a16.58,16.58,0,0,0,5.37.59V588.55H549.56c-15.53,0-25.68-11.18-24.48-25.3,1.19-11.78,11.34-20,24.48-20h81.19a18.68,18.68,0,0,1-3.58-4.13l-93.73-92.4c-8.35-8.24-10.15-19.42-4.77-28.84a22.83,22.83,0,0,1,33.43-6.47,38.32,38.32,0,0,1,5.37,4.71l91.94,90.63a11.8,11.8,0,0,1,2.39,4.71c.59,0,1.19-.6,2.39-.6a22,22,0,0,1,3.58-4.12c31-30.6,62.09-61.21,93.13-92.4,6.57-6.48,14.33-9.42,23.29-7.06,17.31,4.12,22.69,25.31,10.15,38.25-9.55,9.41-18.51,18.84-28.66,28.25L700,538.52a18.57,18.57,0,0,1-4.18,2.95l.59,1.77h80c12.54,0,21.49,7.07,24.48,18.24,2.39,12.35-6,24.71-18.51,26.48a34.23,34.23,0,0,1-7.76.59h-89v45.91h92.54c11.34,0,19.7,7.64,22.09,18.24,3.59,9.41-1.78,20-11.34,24.13ZM134.63,550.3a15.94,15.94,0,0,0-16.12,15.88v43.56a15.94,15.94,0,0,0,16.12,15.89H240.31c0-5.3-.6-10.6-.6-15.89a419.61,419.61,0,0,1,4.78-60H134.63v.6Zm6-290.17v43.55a15.94,15.94,0,0,0,16.12,15.89h201.2A459.06,459.06,0,0,1,457,243.66H156.72c-9,0-16.12,7.64-16.12,16.48ZM89.86,166.56h489a16,16,0,0,0,16.12-15.89V107.1a15.94,15.94,0,0,0-16.12-15.89h-489A15.94,15.94,0,0,0,73.74,107.1v43.56a16,16,0,0,0,16.12,15.89Zm-83,246.61v43.55A15.94,15.94,0,0,0,23,472.6H262.4a367.87,367.87,0,0,1,35.82-75.93H23.58c-9,.6-16.71,7.66-16.71,16.49ZM67.76,703.91A15.94,15.94,0,0,0,51.65,719.8v43.55a15.94,15.94,0,0,0,16.12,15.89H276.13c-10.75-24.72-19.71-50-25.67-75.93H67.76v.59Z"/></svg>