<svg id="图层_1" data-name="图层 1" xmlns="http://www.w3.org/2000/svg" viewBox="0 0 1024 1024"><defs><style>.cls-1{opacity:0.5;}.cls-2{fill:#304b5b;fill-rule:evenodd;}</style></defs><title>画板 25</title><g class="cls-1"><path class="cls-2" d="M515,12.53C234.79,12.53,7.63,239.68,7.63,519.89S234.79,1027.32,515,1027.32s507.4-227.26,507.4-507.43S795.22,12.53,515,12.53ZM289.53,689.11c-108.83,0-169.44-87.16-169.44-196.32,0-109.72,87.76-198.22,196.59-198.22C425,294.56,515,353.87,515,463.6H289.53Zm56.38,56.36V520H571.4C571.4,629.72,454.19,745.47,345.91,745.47Zm563.75-56.36H627.78V576.34H909.66ZM627.78,463.6V350.86H909.66V463.6Z"/></g></svg>