<svg id="图层_1" data-name="图层 1" xmlns="http://www.w3.org/2000/svg" viewBox="0 0 1024 1024"><defs><style>.cls-1{fill:#ced7dc;fill-rule:evenodd;}</style></defs><title>画板 22</title><path class="cls-1" d="M275.66,696.92H217.55c-45.32,0-82.05,81.7-82.05,81.7L30,1023.71H362.34s-11.46-326.79-86.68-326.79ZM427.81,798.19l-41,152.32,37.6,71.48h64.1l35.9-74.88-41-149.79-55.55.86ZM525.25,508c0,26.79,98.16,48.51,219.23,48.51,31.49,0,61.38-1.51,88.46-4.15V463.64c-27.08-2.66-57-11-88.46-11-121.08,0-219.23,28.54-219.23,55.32ZM152.44,443.74A305,305,0,0,0,646.62,578.13a1221.5,1221.5,0,0,1-124.4-9.2,231.34,231.34,0,0,1-79,14.08c-118.63,0-216.27-88.91-229.73-203.45,27.7-73.19,37.94-173.82,91.27-170.28,77.14,191,239.08,81.51,361.7,83.33a226,226,0,0,1-8.29,145c8.21-.14,16.42-.26,24.8-.26,17.91,0,35.34.4,52.47,1a293,293,0,0,0,7.9-137c6-268.89-157.32-299-333.45-299-10,0-173.4-4.57-212.34,90,6.05,42,20.9,86.51,54.21,117.61-55.28-6.22-83.45-44.84-97.9-80.37-29,29-59.36,76.95-59.36,143.37,0,88.48,36.54,151.87,58,170.61Zm701,25.16v78.18c54.33-8.84,65.38-23,65.38-39.08s-11.06-30.25-65.38-39.1ZM402.16,778.62H504.73l25.64-81.7H376.52l25.64,81.7Zm287.18-81.7H626.09c-63.25,0-80.81,326.79-80.81,326.79h314L771.4,778.62s-36.74-81.7-82.05-81.7ZM938.07,2.49c-28.21,19.77-61.54,98.83-38.46,197.65,12.82,79.07,102.56,93.19,12.82,228.72,212.83-104.47-5.12-245.65,25.64-426.37Z"/></svg>