<svg id="图层_1" data-name="图层 1" xmlns="http://www.w3.org/2000/svg" viewBox="0 0 1024 1024"><defs><style>.cls-1{fill:#ced7dc;}</style></defs><title>画板 3</title><path class="cls-1" d="M564.3,813.5l29.1-7.8h0c-153.5-153-96.4-298.6,126.8-495l106.8,93a29.5,29.5,0,0,0,38.4-.4,23.08,23.08,0,0,0,8.3-17.1L931,23.6C931.3,10.4,919.2-.2,904.1.1L489.3,51.5c-11,.2-21.2,6.3-25.6,15.3s-1.9,19,5.8,25.7l108.8,94.8C350.9,387.2,227.6,613.9,564.3,813.5Zm326.6-357V771.8c0,49.4-20.2,126.1-63.1,126.1H197.2c-42.9,0-63.1-13.7-63.1-63.1V267.3c0-49.3,20.2-126.1,63.1-126.1H323.3V15.1H163.2C77.5,15.1,8,95.1,8,193.7V845.3C8,943.9,77.5,1024,163.2,1024H861.7c85.7,0,155.2-80,155.2-178.7V461.8Z"/></svg>