<svg id="图层_1" data-name="图层 1" xmlns="http://www.w3.org/2000/svg" viewBox="0 0 1023.93 930.9"><defs><style>.cls-1{fill:#ced7dc;}</style></defs><title>画板 15</title><path class="cls-1" d="M884.2,418.9c-37.7,0-46.5,9.9-46.5,46.5V744.6c0,36.6-55.5,93.1-93.1,93.1H186.1c-37.6,0-93.1-56.5-93.1-93.1V186.2c0-36.6,55.5-93.1,93.1-93.1H605c37.7,0,46.5-9.8,46.5-46.5S642.6.1,605,.1H204.8C91.9.1,0,89.6,0,199.6V698.2c0,110,73.2,232.7,186.2,232.7H751c112.9,0,179.8-122.7,179.8-232.7V465.4C930.7,428.7,921.8,418.9,884.2,418.9ZM1003.9,19.5c-26.6-26-69.8-26-96.5,0L424.7,489.6a65.17,65.17,0,0,0,0,94c26.7,26,69.9,26,96.5,0l482.7-470.1A65.17,65.17,0,0,0,1003.9,19.5Z"/></svg>