<svg id="图层_1" data-name="图层 1" xmlns="http://www.w3.org/2000/svg" viewBox="0 0 1024 1024"><defs><style>.cls-1{fill:#20c3bb;}</style></defs><title>画板 5</title><path class="cls-1" d="M716.5,15.6H321.7C147.9,15.6,7.1,156.4,7.1,330.2V707.7c0,173.8,140.8,314.6,314.6,314.6H716.5c173.7,0,314.6-140.8,314.6-314.6V330.2C1031.1,156.5,890.2,15.6,716.5,15.6Zm-165,765.9-58.1,58.6c-67.1,67.6-165.1,75.5-219.1,17.8l-40.9-43.8c-53.9-57.7-43.3-159.4,23.7-226.9L390.2,453.1c128.6-85.4,225,19.1,225,19.1l-78.1,78.1-9.3-9.9c-21.6-23.2-67.8-13-103.2,22.8l-81,81.6c-35.4,35.7-46.6,83.4-25,106.5l16.3,17.6c21.7,23.1,67.8,12.9,103.3-22.8L486,698C556.9,694.5,556.3,751.8,551.5,781.5Zm232.8-271L654.7,648.3c-126.3,89.1-225.3-12.7-225.3-12.7l76-80.3,9.4,9.6c22.2,22.5,68.2,11,102.7-25.6l78.8-83.9c34.4-36.7,44.5-84.6,22.3-107.2l-16.8-17.1c-22.2-22.5-68.1-11-102.6,25.6l-46.5,49.5c-70.7,5.3-71.6-52-67.5-81.9l56.6-60.2c65.3-69.4,163.1-80.1,218.5-23.9l42,42.6C857.5,339.2,849.5,441.2,784.3,510.5Z"/></svg>