<?xml version="1.0" encoding="utf-8"?>
<!-- Generator: Adobe Illustrator 18.0.0, SVG Export Plug-In . SVG Version: 6.00 Build 0)  -->
<!DOCTYPE svg PUBLIC "-//W3C//DTD SVG 1.1//EN" "http://www.w3.org/Graphics/SVG/1.1/DTD/svg11.dtd">
<svg version="1.1" id="图层_1" xmlns="http://www.w3.org/2000/svg" xmlns:xlink="http://www.w3.org/1999/xlink" x="0px" y="0px"
	 viewBox="0 0 1000 1000" style="enable-background:new 0 0 1000 1000;" xml:space="preserve">
<style type="text/css">
	.st0{fill:#231815;}
	.st1{fill:#323333;}
	.st2{fill:none;}
	.st3{fill:#303232;}
</style>
<path class="st1" d="M356,213.3c-26.4-31.8-66.3-52-110.9-52c-79.6,0-144.1,64.5-144.1,144.1c0,45.6,21.2,86.3,54.3,112.7
	C188.8,323.9,262.6,248.7,356,213.3z"/>
<path class="st1" d="M843,419.5c34.1-26.4,56.1-67.7,56.1-114.1c0-79.6-64.5-144.1-144.1-144.1c-44.9,0-85,20.5-111.4,52.7
	C736.5,249.8,809.9,325.2,843,419.5z"/>
<path class="st2" d="M649,534.5H521.8V345c0-13.8-11.2-25-25-25s-25,11.2-25,25v214.5c0,13.8,11.2,25,25,25H649
	c13.8,0,25-11.2,25-25C674,545.7,662.9,534.5,649,534.5z"/>
<path class="st2" d="M649,534.5H521.8V345c0-13.8-11.2-25-25-25s-25,11.2-25,25v214.5c0,13.8,11.2,25,25,25H649
	c13.8,0,25-11.2,25-25C674,545.7,662.9,534.5,649,534.5z"/>
<path class="st2" d="M649,534.5H521.8V345c0-13.8-11.2-25-25-25s-25,11.2-25,25v214.5c0,13.8,11.2,25,25,25H649
	c13.8,0,25-11.2,25-25C674,545.7,662.9,534.5,649,534.5z"/>
<path class="st1" d="M201.7,902.7c-6.4,0-12.8-2.4-17.7-7.3c-9.8-9.8-9.8-25.6,0-35.4l102.6-102.6c9.8-9.8,25.6-9.8,35.4,0
	c9.8,9.8,9.8,25.6,0,35.4L219.3,895.4C214.5,900.3,208.1,902.7,201.7,902.7z"/>
<path class="st3" d="M782.8,902.7c-6.4,0-12.8-2.4-17.7-7.3l-99.7-99.7c-9.8-9.8-9.8-25.6,0-35.4c9.8-9.8,25.6-9.8,35.4,0l99.7,99.7
	c9.8,9.8,9.8,25.6,0,35.4C795.6,900.3,789.2,902.7,782.8,902.7z"/>
<path class="st2" d="M649,534.5H521.8V345c0-13.8-11.2-25-25-25s-25,11.2-25,25v214.5c0,13.8,11.2,25,25,25H649
	c13.8,0,25-11.2,25-25C674,545.7,662.9,534.5,649,534.5z"/>
<path class="st1" d="M819,439.5C785.9,345.2,712.5,269.8,619.5,234c-38.1-14.7-79.4-22.7-122.6-22.7c-42.6,0-83.3,7.8-120.9,22.1
	c-93.4,35.4-167.2,110.5-200.7,204.8c-12.7,35.8-19.7,74.3-19.7,114.5c0,188.5,152.8,341.3,341.3,341.3s341.3-152.8,341.3-341.3
	C838.1,513,831.4,474.9,819,439.5z M649,584.5H496.8c-13.8,0-25-11.2-25-25V345c0-13.8,11.2-25,25-25s25,11.2,25,25v189.5H649
	c13.8,0,25,11.2,25,25C674,573.3,662.9,584.5,649,584.5z"/>
</svg>
