<?xml version="1.0" encoding="utf-8"?>
<!-- Generator: Adobe Illustrator 18.0.0, SVG Export Plug-In . SVG Version: 6.00 Build 0)  -->
<!DOCTYPE svg PUBLIC "-//W3C//DTD SVG 1.1//EN" "http://www.w3.org/Graphics/SVG/1.1/DTD/svg11.dtd">
<svg version="1.1" id="图层_1" xmlns="http://www.w3.org/2000/svg" xmlns:xlink="http://www.w3.org/1999/xlink" x="0px" y="0px"
	 viewBox="0 0 1000 1000" style="enable-background:new 0 0 1000 1000;" xml:space="preserve">
<style type="text/css">
	.st0{fill:#231815;}
	.st1{fill:#323333;}
	.st2{fill:none;}
	.st3{fill:#303232;}
</style>
<g>
	<path class="st0" d="M181.9,880.4c-6.4,0-12.8-2.4-17.7-7.3c-9.8-9.8-9.8-25.6,0-35.4l598.2-598.2c9.8-9.8,25.6-9.8,35.4,0
		c9.8,9.8,9.8,25.6,0,35.4L199.6,873.1C194.7,878,188.3,880.4,181.9,880.4z"/>
</g>
<g>
	<path class="st0" d="M780.1,880.4c-6.4,0-12.8-2.4-17.7-7.3L164.2,274.9c-9.8-9.8-9.8-25.6,0-35.4c9.8-9.8,25.6-9.8,35.4,0
		l598.2,598.2c9.8,9.8,9.8,25.6,0,35.4C792.9,878,786.5,880.4,780.1,880.4z"/>
</g>
</svg>
