<?xml version="1.0" standalone="no"?><!DOCTYPE svg PUBLIC "-//W3C//DTD SVG 1.1//EN" "http://www.w3.org/Graphics/SVG/1.1/DTD/svg11.dtd"><svg height="200" width="200" xmlns:xlink="http://www.w3.org/1999/xlink" t="1515573343087" class="icon" style="" viewBox="0 0 1024 1024" version="1.1" xmlns="http://www.w3.org/2000/svg" p-id="1874"><defs><style type="text/css"></style></defs><path d="M512.017 89.505c0 0-288.093 248.693-449.082 383.379-9.468 8.558-16.626 21.062-16.626 35.767 0 25.743 20.818 46.56 46.56 46.56h93.155v325.99c0 25.746 20.816 46.56 46.56 46.56h139.715c25.743 0 46.559-20.852 46.559-46.56v-186.275h186.275v186.273c0 25.709 20.816 46.56 46.56 46.56h139.715c25.743 0 46.559-20.815 46.559-46.56v-325.99h93.156c25.743 0 46.559-20.816 46.559-46.56 0-14.705-7.161-27.21-17.849-35.767-159.867-134.685-447.89-383.378-447.89-383.378h0.069z" p-id="1875"></path></svg>