<?xml version="1.0" encoding="utf-8"?>
<!-- Generator: Adobe Illustrator 21.0.2, SVG Export Plug-In . SVG Version: 6.00 Build 0)  -->
<svg version="1.1" id="图层_1" xmlns="http://www.w3.org/2000/svg" xmlns:xlink="http://www.w3.org/1999/xlink" x="0px" y="0px"
	 viewBox="0 0 1024 1024" style="enable-background:new 0 0 1024 1024;" xml:space="preserve">
<path d="M11.9,449.6L69.2,479c0,0,26.1,14.9,39.8-13l141.9-296.4c0,0,13.4-25.3-8.5-37.2l-62.5-30.5c0,0-19.4-10.8-32,12
	C147.4,123.1,2.3,416,2.3,416S-7,440,11.9,449.6L11.9,449.6z M947.4,479.7l58.5-26.9c0,0,28-11.3,14.5-39.4L874.4,119
	c0,0-11.7-26.1-34.6-16.3L777.3,133c0,0-20.5,8.6-10.4,32.5c7,6,148.1,301,148.1,301S928.1,488.6,947.4,479.7L947.4,479.7z
	 M150.7,478.7l19.3-40.9l67.8,85.5c0,0,44.1-10.1,59.5,17.5c0,0,14.5,16.8,8.2,48.4c0,0,9.1,6.6,9.8,10.7c0,0,30.3-7.3,48.6,14.2
	c0,0,16.8,13.3,14.9,39.4c0,0,12.1,5.2,14.5,12.3c0,0,29.8-7.4,44.3,10c0,0,17.7,16.5,16.4,35.8l27.7,20.2c0,0,25.8,2.2,29.9,22.3
	l24.8,18.3c0,0,39.7,15.7,41.9-23.9l-93.2-70.9c0,0-10.9-28.6,23.2-24.1l138.9,97.8c0,0,22.7,9.7,36.5-11.8c0,0,13.4-18.6-5.6-38.7
	L530.4,593.9c0,0-13-29.8,20.5-27.5l175.3,123.9c0,0,24.9,9.9,35.4-8.6c0,0,14.2-18.5,0-37.6L568.1,503c0,0-11.7-33.8,24.6-25.1
	l199.6,142c0,0,30.2,9.5,43.6-15.1c0,0,17.1-26.4-5.8-48.2l-282.3-246c0,0-52.5-25.1-83.8,27.4c0,0-5.5,85.4-100.5,101
	c0,0-64.8-5-49.7-47.4c0,0,19-25.1,17.4-78.1c0,0,2.2-37.9,28.5-70.3H258l22.3-46.3h153.5c0,0,63.1-35.7,110.6-32.4
	c0,0,62,3.3,78.7,12.8c0,0,82.1,26.2,118.9,20.1l137.4,284.5l-21.8,49.7c0,0,40.2,41.3,10.5,91.3c-8.3,16.8-29.5,33-64.1,34.6
	c0,0,5.3,33.8-19,52.8c0,0-17.9,24.5-61.2,17.7c0,0,2.5,29.8-26.2,49.7c0,0-34.1,29.3-86.8-6.4c0,0-8.4,33.6-50.5,40.4
	c0,0-30.7,4.8-48.6-12.5c0,0-32.2,60.5-77.9,26.4c0,0-29-24-8.6-58c0,0-39,61.6-85.4,15.3c0,0-25.7-19.3-2-59.7
	c0,0-36.8,41.9-77.3,3.9c0,0-27.6-22.6-5.6-64.6c0,0-37.7,44.6-81.5,2.1c0,0-18.4-16.9-7.8-54.6l42.4-58L150.7,478.7L150.7,478.7z"
	/>
</svg>
