<svg id="图层_1" data-name="图层 1" xmlns="http://www.w3.org/2000/svg" viewBox="0 0 1024 1024"><defs><style>.cls-1{fill:#20c3bb;}</style></defs><title>图标</title><path class="cls-1" d="M887.63,16.95H138.21a124.91,124.91,0,0,0-124.9,124.9V891.28a124.9,124.9,0,0,0,124.9,124.9H887.63a124.9,124.9,0,0,0,124.91-124.9V141.85A124.91,124.91,0,0,0,887.63,16.95ZM472.41,894.64c-130.51,0-243.06-46.95-243.06-121.53,0-55.48,58.57-103.14,142.3-123.91-33.66,10.74-56.85,30.32-88.29,63.15-59.31,61.94,84.64,128.28,189,128.28s260.46-80.79,189-128.28c-41-27.26-67.95-55.2-122.39-67.62C633.63,662.39,702,713.19,702,773.12,702,847.7,602.92,894.64,472.41,894.64ZM809.23,180.93c-1.6,13.48-5.61,30-11.77,47.87-16.11,46.91-42.55,92.37-72.51,124.76-19.15,20.68-40,36.48-61.77,46.9-1.52.72-3,1.44-4.49,2.08a149.77,149.77,0,0,1-75.07,12.59c-141.49-12.51-169.05,40.09-193.33,86.6-.56,1.2-1.2,2.32-1.76,3.44L495.65,747.34a18.35,18.35,0,1,1-33.57,14.83L230.93,239.63a18.37,18.37,0,0,1,7.05-23,22.82,22.82,0,0,1,3-3.2c1.28-1.12,32.53-27.1,85.32-45.7a324.5,324.5,0,0,1,95.26-18.36c40.38-1.61,81.24,4.4,121.38,18,149.34,50.19,176.18,24.69,216.88-14,1.84-1.84,3.85-3.69,5.77-5.53,15.62-14.67,28.68-8.09,32.37-5.77C811.16,150.47,810.76,168.34,809.23,180.93ZM467.48,638.1c-6,0-11.82.13-17.37.29q7.71-.29,15.55-.3Z"/></svg>