<svg id="图层_1" data-name="图层 1" xmlns="http://www.w3.org/2000/svg" viewBox="0 0 1024 1024"><defs><style>.cls-1{fill:#d4d9de;}</style></defs><title>图标</title><path class="cls-1" d="M543.12,621.07c37.43-21.32,69.23-10.13,79.84,0l27.52,45.23,52.59-35.59c-.06-92.11-.27-195.13-.27-200V202.34c0-51.07-24-76.15-79.84-76.15H104c-55.86,0-79.84,25.08-79.84,76.15v571c0,51,24,76.13,79.84,76.13H609.65L503.2,697.2C491.16,661.76,520,635.82,543.12,621.07ZM196.41,257.94H503.61c14,0,23.24,12.86,23.24,21.22,0,12.76-9.28,21.26-23.24,21.26H196.41c-14,0-23.24-8.49-23.24-21.26S182.44,257.94,196.41,257.94ZM173.18,419.7c0-12.77,9.27-21.24,23.24-21.24H503.6c14,0,23.24,8.47,23.24,21.24s-9.28,21.24-23.24,21.24H196.41C182.44,440.95,173.18,432.47,173.18,419.7ZM857,601.44c-6.64-6.14-17-23.24-23.62-17.09L658.32,747.19l-85.6-97.45c-5.91-6.13-16.24,9.59-23.62,15-6.64,5.45-8.12,15-2.21,21.81L655.37,811.3,857,623.24A14.42,14.42,0,0,0,857,601.44Z"/></svg>