<svg id="图层_1" data-name="图层 1" xmlns="http://www.w3.org/2000/svg" viewBox="0 0 1024 1024"><defs><style>.cls-1{fill:#304b5b;fill-rule:evenodd;}</style></defs><title>画板 1</title><path class="cls-1" d="M534.45,1024C338.68,1024,180,863.5,180,665.61c0-80.52,34.41-172.56,78.76-232.38V275.68C258.76,117.29,353.05,0,534.45,0S810.14,117.29,810.14,275.68V433.23c44.35,59.82,78.77,151.87,78.77,232.38C888.91,863.5,730.24,1024,534.45,1024ZM731.38,315.07C731.38,184,673,78.76,534.45,78.76S337.53,207.07,337.53,315.07v39.39c114.12-58.84,328.31-43.88,393.85,0ZM534.45,393.85c-149.41,0-275.69,128.61-275.69,275.68S385,945.22,534.45,945.22,810.14,816.56,810.14,669.53C812,559.42,724.27,393.85,534.45,393.85Zm-.07,354.82c-21.85,0-39.55-14.73-39.55-32.92V623.55c0-18.15,17.7-32.87,39.55-32.87s39.55,14.71,39.55,32.87v92.21c0,18.19-17.7,32.92-39.55,32.92Z"/></svg>